Foldit-ExtraBold-Expanded.ufo
<glyph name="exclam.color0" format="2">
  <advance width="600"/>
  <unicode hex="0021"/>
  <outline>
    <contour>
      <point x="35" y="629" type="line"/>
      <point x="248" y="736" type="line"/>
      <point x="249" y="736" type="line"/>
      <point x="249" y="274" type="line"/>
      <point x="35" y="274" type="line"/>
    </contour>
  </outline>
</glyph>
<glyph name="numbersign.color1" format="2">
  <advance width="600"/>
  <unicode hex="0023"/>
  <outline>
    <contour>
      <point x="780" y="131" type="line"/>
      <point x="0" y="131" type="line"/>
      <point x="70" y="315" type="line"/>
      <point x="850" y="315" type="line"/>
      <point x="780" y="132" type="line"/>
    </contour>
  </outline>
</glyph>
<glyph name="numbersign.color2" format="2">
  <advance width="600"/>
  <unicode hex="0023"/>
  <outline>
    <contour>
      <point x="572" y="730" type="line"/>
      <point x="572" y="729" type="line"/>
      <point x="278" y="0" type="line"/>
      <point x="74" y="0" type="line"/>
      <point x="74" y="1" type="line"/>
      <point x="368" y="730" type="line"/>
    </contour>
  </outline>
</glyph>
<glyph name="dollar.color4" format="2">
  <advance width="600"/>
  <unicode hex="0024"/>
  <outline>
    <contour>
      <point x="577" y="786" type="line"/>
      <point x="579" y="-24" type="line"/>
      <point x="348" y="-47" type="line"/>
      <point x="346" y="-47" type="line"/>
      <point x="345" y="763" type="line"/>
      <point x="575" y="786" type="line"/>
    </contour>
  </outline>
</glyph>
<glyph name="parenleft.color1" format="2">
  <advance width="600"/>
  <unicode hex="0028"/>
  <outline>
    <contour>
      <point x="550" y="486" type="line"/>
      <point x="289" y="486" type="line"/>
      <point x="289" y="730" type="line"/>
      <point x="550" y="730" type="line"/>
      <point x="550" y="729" type="line"/>
    </contour>
  </outline>
</glyph>
<glyph name="asterisk" format="2">
  <advance width="562"/>
  <unicode hex="002A"/>
  <outline>
    <contour>
      <point x="225" y="442" type="line"/>
      <point x="211" y="351" type="line"/>
      <point x="211" y="349" type="line"/>
      <point x="87" y="349" type="line"/>
      <point x="5" y="556" type="line"/>
    </contour>
    <contour>
      <point x="225" y="442" type="line"/>
      <point x="5" y="556" type="line"/>
      <point x="5" y="557" type="line"/>
      <point x="269" y="730" type="line"/>
      <point x="271" y="730" type="line"/>
    </contour>
    <contour>
      <point x="527" y="557" type="line"/>
      <point x="527" y="556" type="line"/>
      <point x="445" y="349" type="line"/>
      <point x="211" y="349" type="line"/>
      <point x="211" y="351" type="line"/>
      <point x="271" y="730" type="line"/>
      <point x="272" y="730" type="line"/>
    </contour>
  </outline>
</glyph>
<glyph name="three.color2" format="2">
  <advance width="600"/>
  <unicode hex="0033"/>
  <outline>
    <contour>
      <point x="765" y="193" type="line"/>
      <point x="512" y="0" type="line"/>
      <point x="511" y="0" type="line"/>
      <point x="511" y="466" type="line"/>
      <point x="512" y="466" type="line"/>
      <point x="765" y="269" type="line"/>
    </contour>
  </outline>
</glyph>
<glyph name="three" format="2">
  <advance width="800"/>
  <unicode hex="0033"/>
  <outline>
    <contour>
      <point x="765" y="366" type="line"/>
      <point x="511" y="366" type="line"/>
      <point x="511" y="730" type="line"/>
      <point x="512" y="730" type="line"/>
      <point x="765" y="523" type="line"/>
    </contour>
    <contour>
      <point x="217" y="730" type="line"/>
      <point x="511" y="730" type="line"/>
      <point x="511" y="486" type="line"/>
      <point x="15" y="486" type="line"/>
      <point x="15" y="487" type="line"/>
    </contour>
    <contour>
      <point x="765" y="193" type="line"/>
      <point x="512" y="0" type="line"/>
      <point x="511" y="0" type="line"/>
      <point x="511" y="466" type="line"/>
      <point x="512" y="466" type="line"/>
      <point x="765" y="269" type="line"/>
    </contour>
    <contour>
      <point x="116" y="262" type="line"/>
      <point x="116" y="466" type="line"/>
      <point x="511" y="466" type="line"/>
      <point x="511" y="262" type="line"/>
    </contour>
    <contour>
      <point x="217" y="0" type="line"/>
      <point x="15" y="243" type="line"/>
      <point x="15" y="244" type="line"/>
      <point x="511" y="244" type="line"/>
      <point x="511" y="243" type="line"/>
      <point x="511" y="0" type="line"/>
    </contour>
  </outline>
</glyph>
<glyph name="five" format="2">
  <advance width="800"/>
  <unicode hex="0035"/>
  <outline>
    <contour>
      <point x="75" y="700" type="line"/>
      <point x="328" y="700" type="line"/>
      <point x="329" y="700" type="line"/>
      <point x="329" y="502" type="line"/>
      <point x="328" y="502" type="line"/>
      <point x="75" y="502" type="line"/>
    </contour>
    <contour>
      <point x="715" y="700" type="line"/>
      <point x="715" y="523" type="line"/>
      <point x="715" y="522" type="line"/>
      <point x="329" y="522" type="line"/>
      <point x="329" y="700" type="line"/>
    </contour>
    <contour>
      <point x="765" y="187" type="line"/>
      <point x="512" y="0" type="line"/>
      <point x="511" y="0" type="line"/>
      <point x="511" y="502" type="line"/>
      <point x="512" y="502" type="line"/>
      <point x="765" y="325" type="line"/>
    </contour>
    <contour>
      <point x="75" y="262" type="line"/>
      <point x="75" y="502" type="line"/>
      <point x="511" y="502" type="line"/>
      <point x="511" y="263" type="line"/>
      <point x="511" y="262" type="line"/>
    </contour>
    <contour>
      <point x="217" y="0" type="line"/>
      <point x="15" y="243" type="line"/>
      <point x="15" y="244" type="line"/>
      <point x="511" y="244" type="line"/>
      <point x="511" y="243" type="line"/>
      <point x="511" y="0" type="line"/>
    </contour>
  </outline>
</glyph>
<glyph name="nine.color2" format="2">
  <advance width="600"/>
  <unicode hex="0039"/>
  <outline>
    <contour>
      <point x="5" y="533" type="line"/>
      <point x="258" y="730" type="line"/>
      <point x="259" y="730" type="line"/>
      <point x="259" y="264" type="line"/>
      <point x="258" y="264" type="line"/>
      <point x="5" y="457" type="line"/>
    </contour>
  </outline>
</glyph>
<glyph name="equal.color0" format="2">
  <advance width="600"/>
  <unicode hex="003D"/>
  <outline>
    <contour>
      <point x="665" y="356" type="line"/>
      <point x="25" y="356" type="line"/>
      <point x="25" y="540" type="line"/>
      <point x="665" y="540" type="line"/>
      <point x="665" y="357" type="line"/>
    </contour>
  </outline>
</glyph>
<glyph name="question.color1" format="2">
  <advance width="600"/>
  <unicode hex="003F"/>
  <outline>
    <contour>
      <point x="197" y="730" type="line"/>
      <point x="588" y="730" type="line"/>
      <point x="588" y="486" type="line"/>
      <point x="-5" y="486" type="line"/>
      <point x="-5" y="487" type="line"/>
    </contour>
  </outline>
</glyph>
<glyph name="D" format="2">
  <advance width="947"/>
  <unicode hex="0044"/>
  <anchor x="166" y="361" name="stroke"/>
  <anchor x="476" y="730" name="top"/>
  <outline>
    <contour>
      <point x="35" y="730" type="line"/>
      <point x="288" y="730" type="line"/>
      <point x="289" y="730" type="line"/>
      <point x="289" y="240" type="line"/>
      <point x="35" y="240" type="line"/>
    </contour>
    <contour>
      <point x="720" y="730" type="line"/>
      <point x="922" y="487" type="line"/>
      <point x="922" y="486" type="line"/>
      <point x="289" y="486" type="line"/>
      <point x="289" y="730" type="line"/>
    </contour>
    <contour>
      <point x="922" y="193" type="line"/>
      <point x="669" y="-4" type="line"/>
      <point x="668" y="-4" type="line"/>
      <point x="668" y="486" type="line"/>
      <point x="922" y="486" type="line"/>
    </contour>
    <contour>
      <point x="35" y="-4" type="line"/>
      <point x="35" y="239" type="line"/>
      <point x="35" y="240" type="line"/>
      <point x="668" y="240" type="line"/>
      <point x="668" y="-4" type="line"/>
    </contour>
  </outline>
</glyph>
<glyph name="E.color2" format="2">
  <advance width="600"/>
  <unicode hex="0045"/>
  <outline>
    <contour>
      <point x="698" y="263" type="line"/>
      <point x="289" y="263" type="line"/>
      <point x="289" y="467" type="line"/>
      <point x="698" y="467" type="line"/>
    </contour>
  </outline>
</glyph>
<glyph name="H.color1" format="2">
  <advance width="600"/>
  <unicode hex="0048"/>
  <outline>
    <contour>
      <point x="892" y="-4" type="line"/>
      <point x="639" y="-4" type="line"/>
      <point x="638" y="-4" type="line"/>
      <point x="638" y="730" type="line"/>
      <point x="892" y="730" type="line"/>
    </contour>
  </outline>
</glyph>
<glyph name="Q.color2" format="2">
  <advance width="600"/>
  <unicode hex="0051"/>
  <outline>
    <contour>
      <point x="882" y="193" type="line"/>
      <point x="820" y="144" type="line"/>
      <point x="739" y="240" type="line"/>
      <point x="628" y="240" type="line"/>
      <point x="628" y="486" type="line"/>
      <point x="882" y="486" type="line"/>
    </contour>
  </outline>
</glyph>
<glyph name="W.color2" format="2">
  <advance width="600"/>
  <unicode hex="0057"/>
  <outline>
    <contour>
      <point x="527" y="730" type="line"/>
      <point x="801" y="730" type="line"/>
      <point x="974" y="192" type="line"/>
      <point x="776" y="0" type="line"/>
      <point x="775" y="0" type="line"/>
    </contour>
  </outline>
</glyph>
<glyph name="X.color0" format="2">
  <advance width="600"/>
  <unicode hex="0058"/>
  <outline>
    <contour>
      <point x="30" y="730" type="line"/>
      <point x="334" y="730" type="line"/>
      <point x="457" y="557" type="line"/>
      <point x="279" y="365" type="line"/>
      <point x="278" y="365" type="line"/>
    </contour>
  </outline>
</glyph>
<glyph name="bracketleft" format="2">
  <advance width="585"/>
  <unicode hex="005B"/>
  <outline>
    <contour>
      <point x="35" y="730" type="line"/>
      <point x="288" y="730" type="line"/>
      <point x="289" y="730" type="line"/>
      <point x="289" y="144" type="line"/>
      <point x="35" y="144" type="line"/>
    </contour>
    <contour>
      <point x="550" y="486" type="line"/>
      <point x="289" y="486" type="line"/>
      <point x="289" y="730" type="line"/>
      <point x="550" y="730" type="line"/>
      <point x="550" y="729" type="line"/>
    </contour>
    <contour>
      <point x="550" y="-100" type="line"/>
      <point x="35" y="-100" type="line"/>
      <point x="35" y="143" type="line"/>
      <point x="35" y="144" type="line"/>
      <point x="550" y="144" type="line"/>
    </contour>
  </outline>
</glyph>
<glyph name="d.color4" format="2">
  <advance width="600"/>
  <unicode hex="0064"/>
  <outline>
    <contour>
      <point x="569" y="530" type="line"/>
      <point x="569" y="794" type="line"/>
      <point x="783" y="794" type="line"/>
      <point x="783" y="329" type="line"/>
      <point x="782" y="329" type="line"/>
    </contour>
  </outline>
</glyph>
<glyph name="g.color0" format="2">
  <advance width="600"/>
  <unicode hex="0067"/>
  <outline>
    <contour>
      <point x="744" y="-104" type="line"/>
      <point x="531" y="-206" type="line"/>
      <point x="530" y="-206" type="line"/>
      <point x="530" y="326" type="line"/>
      <point x="744" y="326" type="line"/>
    </contour>
  </outline>
</glyph>
<glyph name="g.color3" format="2">
  <advance width="600"/>
  <unicode hex="0067"/>
  <outline>
    <contour>
      <point x="744" y="326" type="line"/>
      <point x="249" y="326" type="line"/>
      <point x="249" y="530" type="line"/>
      <point x="830" y="530" type="line"/>
      <point x="830" y="529" type="line"/>
    </contour>
  </outline>
</glyph>
<glyph name="g" format="2">
  <advance width="830"/>
  <unicode hex="0067"/>
  <anchor x="452" y="530" name="top"/>
  <outline>
    <contour>
      <point x="744" y="-104" type="line"/>
      <point x="531" y="-206" type="line"/>
      <point x="530" y="-206" type="line"/>
      <point x="530" y="326" type="line"/>
      <point x="744" y="326" type="line"/>
    </contour>
    <contour>
      <point x="137" y="0" type="line"/>
      <point x="35" y="203" type="line"/>
      <point x="35" y="204" type="line"/>
      <point x="530" y="204" type="line"/>
      <point x="530" y="0" type="line"/>
    </contour>
    <contour>
      <point x="35" y="423" type="line"/>
      <point x="248" y="530" type="line"/>
      <point x="249" y="530" type="line"/>
      <point x="249" y="204" type="line"/>
      <point x="35" y="204" type="line"/>
    </contour>
    <contour>
      <point x="744" y="326" type="line"/>
      <point x="249" y="326" type="line"/>
      <point x="249" y="530" type="line"/>
      <point x="830" y="530" type="line"/>
      <point x="830" y="529" type="line"/>
    </contour>
    <contour>
      <point x="137" y="-206" type="line"/>
      <point x="35" y="-27" type="line"/>
      <point x="35" y="-26" type="line"/>
      <point x="530" y="-26" type="line"/>
      <point x="530" y="-206" type="line"/>
    </contour>
  </outline>
</glyph>
<glyph name="k.color1" format="2">
  <advance width="600"/>
  <unicode hex="006B"/>
  <outline>
    <contour>
      <point x="665" y="397" type="line"/>
      <point x="772" y="194" type="line"/>
      <point x="772" y="193" type="line"/>
      <point x="249" y="193" type="line"/>
      <point x="249" y="397" type="line"/>
    </contour>
  </outline>
</glyph>
<glyph name="k.color3" format="2">
  <advance width="600"/>
  <unicode hex="006B"/>
  <outline>
    <contour>
      <point x="451" y="556" type="line"/>
      <point x="664" y="663" type="line"/>
      <point x="665" y="663" type="line"/>
      <point x="665" y="397" type="line"/>
      <point x="451" y="397" type="line"/>
    </contour>
  </outline>
</glyph>
<glyph name="k" format="2">
  <advance width="779"/>
  <unicode hex="006B"/>
  <anchor x="395" y="0" name="bottom"/>
  <outline>
    <contour>
      <point x="35" y="794" type="line"/>
      <point x="248" y="794" type="line"/>
      <point x="249" y="400" type="line"/>
      <point x="249" y="0" type="line"/>
      <point x="35" y="0" type="line"/>
    </contour>
    <contour>
      <point x="665" y="397" type="line"/>
      <point x="772" y="194" type="line"/>
      <point x="772" y="193" type="line"/>
      <point x="249" y="193" type="line"/>
      <point x="249" y="397" type="line"/>
    </contour>
    <contour>
      <point x="772" y="0" type="line"/>
      <point x="559" y="0" type="line"/>
      <point x="558" y="0" type="line"/>
      <point x="558" y="193" type="line"/>
      <point x="772" y="193" type="line"/>
    </contour>
    <contour>
      <point x="451" y="556" type="line"/>
      <point x="664" y="663" type="line"/>
      <point x="665" y="663" type="line"/>
      <point x="665" y="397" type="line"/>
      <point x="451" y="397" type="line"/>
    </contour>
  </outline>
</glyph>
<glyph name="p.color1" format="2">
  <advance width="600"/>
  <unicode hex="0070"/>
  <outline>
    <contour>
      <point x="197" y="0" type="line"/>
      <point x="35" y="203" type="line"/>
      <point x="35" y="204" type="line"/>
      <point x="559" y="204" type="line"/>
      <point x="559" y="0" type="line"/>
    </contour>
  </outline>
</glyph>
<glyph name="q" format="2">
  <advance width="808"/>
  <unicode hex="0071"/>
  <outline>
    <contour>
      <point x="773" y="-200" type="line"/>
      <point x="560" y="-200" type="line"/>
      <point x="559" y="0" type="line"/>
      <point x="559" y="326" type="line"/>
      <point x="773" y="326" type="line"/>
    </contour>
    <contour>
      <point x="137" y="0" type="line"/>
      <point x="35" y="203" type="line"/>
      <point x="35" y="204" type="line"/>
      <point x="559" y="204" type="line"/>
      <point x="559" y="0" type="line"/>
    </contour>
    <contour>
      <point x="35" y="423" type="line"/>
      <point x="248" y="530" type="line"/>
      <point x="249" y="530" type="line"/>
      <point x="249" y="204" type="line"/>
      <point x="35" y="204" type="line"/>
    </contour>
    <contour>
      <point x="671" y="530" type="line"/>
      <point x="773" y="327" type="line"/>
      <point x="773" y="326" type="line"/>
      <point x="249" y="326" type="line"/>
      <point x="249" y="530" type="line"/>
    </contour>
  </outline>
</glyph>
<glyph name="y" format="2">
  <advance width="779"/>
  <unicode hex="0079"/>
  <anchor x="402" y="-200" name="bottom"/>
  <anchor x="422" y="530" name="top"/>
  <outline>
    <contour>
      <point x="142" y="0" type="line"/>
      <point x="35" y="203" type="line"/>
      <point x="35" y="204" type="line"/>
      <point x="529" y="204" type="line"/>
      <point x="529" y="0" type="line"/>
    </contour>
    <contour>
      <point x="744" y="-104" type="line"/>
      <point x="531" y="-206" type="line"/>
      <point x="530" y="-206" type="line"/>
      <point x="530" y="530" type="line"/>
      <point x="744" y="530" type="line"/>
    </contour>
    <contour>
      <point x="35" y="489" type="line"/>
      <point x="248" y="536" type="line"/>
      <point x="249" y="536" type="line"/>
      <point x="249" y="204" type="line"/>
      <point x="35" y="204" type="line"/>
    </contour>
    <contour>
      <point x="137" y="-206" type="line"/>
      <point x="35" y="-27" type="line"/>
      <point x="35" y="-26" type="line"/>
      <point x="530" y="-26" type="line"/>
      <point x="530" y="-206" type="line"/>
    </contour>
  </outline>
</glyph>
<glyph name="z.color1" format="2">
  <advance width="600"/>
  <unicode hex="007A"/>
  <outline>
    <contour>
      <point x="273" y="149" type="line"/>
      <point x="30" y="179" type="line"/>
      <point x="30" y="180" type="line"/>
      <point x="673" y="530" type="line"/>
      <point x="763" y="365" type="line"/>
    </contour>
  </outline>
</glyph>
<glyph name="braceleft.color3" format="2">
  <advance width="600"/>
  <unicode hex="007B"/>
  <outline>
    <contour>
      <point x="35" y="438" type="line"/>
      <point x="187" y="438" type="line"/>
      <point x="187" y="194" type="line"/>
      <point x="35" y="194" type="line"/>
    </contour>
  </outline>
</glyph>
<glyph name="cent.color1" format="2">
  <advance width="600"/>
  <unicode hex="00A2"/>
  <outline>
    <contour>
      <point x="314" y="563" type="line"/>
      <point x="545" y="586" type="line"/>
      <point x="547" y="586" type="line"/>
      <point x="548" y="477" type="line"/>
      <point x="547" y="477" type="line"/>
      <point x="315" y="477" type="line"/>
    </contour>
  </outline>
</glyph>
<glyph name="cent" format="2">
  <advance width="767"/>
  <unicode hex="00A2"/>
  <outline>
    <contour>
      <point x="548" y="-33" type="line"/>
      <point x="317" y="-56" type="line"/>
      <point x="315" y="-56" type="line"/>
      <point x="315" y="34" type="line"/>
      <point x="317" y="34" type="line"/>
      <point x="548" y="34" type="line"/>
    </contour>
    <contour>
      <point x="314" y="563" type="line"/>
      <point x="545" y="586" type="line"/>
      <point x="547" y="586" type="line"/>
      <point x="548" y="477" type="line"/>
      <point x="547" y="477" type="line"/>
      <point x="315" y="477" type="line"/>
    </contour>
    <component base="c" xOffset="-5"/>
  </outline>
</glyph>
<glyph name="sterling" format="2">
  <advance width="1017"/>
  <unicode hex="00A3"/>
  <outline>
    <contour>
      <point x="892" y="454" type="line"/>
      <point x="892" y="280" type="line"/>
      <point x="70" y="279" type="line"/>
      <point x="70" y="453" type="line"/>
    </contour>
    <contour>
      <point x="135" y="523" type="line"/>
      <point x="388" y="730" type="line"/>
      <point x="389" y="730" type="line"/>
      <point x="389" y="466" type="line"/>
      <point x="388" y="244" type="line"/>
      <point x="135" y="244" type="line"/>
    </contour>
    <contour>
      <point x="780" y="730" type="line"/>
      <point x="982" y="487" type="line"/>
      <point x="982" y="486" type="line"/>
      <point x="389" y="486" type="line"/>
      <point x="389" y="730" type="line"/>
    </contour>
    <contour>
      <point x="35" y="0" type="line"/>
      <point x="35" y="243" type="line"/>
      <point x="35" y="244" type="line"/>
      <point x="982" y="244" type="line"/>
      <point x="982" y="243" type="line"/>
      <point x="982" y="0" type="line"/>
    </contour>
  </outline>
</glyph>
<glyph name="currency.color1" format="2">
  <advance width="600"/>
  <unicode hex="00A4"/>
  <outline>
    <contour>
      <point x="282" y="150" type="line"/>
      <point x="142" y="65" type="line"/>
      <point x="15" y="269" type="line"/>
      <point x="155" y="354" type="line"/>
    </contour>
  </outline>
</glyph>
<glyph name="section.color0" format="2">
  <advance width="600"/>
  <unicode hex="00A7"/>
  <outline>
    <contour>
      <point x="434" y="314" type="line"/>
      <point x="490" y="397" type="line"/>
      <point x="656" y="230" type="line"/>
      <point x="590" y="126" type="line"/>
    </contour>
  </outline>
</glyph>
<glyph name="logicalnot.color0" format="2">
  <advance width="600"/>
  <unicode hex="00AC"/>
  <outline>
    <contour>
      <point x="525" y="286" type="line"/>
      <point x="25" y="286" type="line"/>
      <point x="25" y="490" type="line"/>
      <point x="418" y="490" type="line"/>
    </contour>
  </outline>
</glyph>
<glyph name="registered.color1" format="2">
  <advance width="600"/>
  <unicode hex="00AE"/>
  <outline>
    <contour>
      <point x="107" y="746" type="line"/>
      <point x="260" y="746" type="line"/>
      <point x="261" y="746" type="line"/>
      <point x="261" y="485" type="line"/>
      <point x="107" y="485" type="line"/>
    </contour>
  </outline>
</glyph>
<glyph name="registered.color8" format="2">
  <advance width="600"/>
  <unicode hex="00AE"/>
  <outline>
    <contour>
      <point x="617" y="431" type="line"/>
      <point x="59" y="431" type="line"/>
      <point x="59" y="455" type="line"/>
      <point x="640" y="455" type="line"/>
      <point x="640" y="454" type="line"/>
    </contour>
  </outline>
</glyph>
<glyph name="threesuperior" format="2">
  <advance width="459"/>
  <unicode hex="00B3"/>
  <outline>
    <contour>
      <point x="419" y="638" type="line"/>
      <point x="264" y="638" type="line"/>
      <point x="264" y="794" type="line"/>
      <point x="265" y="794" type="line"/>
      <point x="419" y="703" type="line"/>
    </contour>
    <contour>
      <point x="117" y="794" type="line"/>
      <point x="264" y="794" type="line"/>
      <point x="264" y="699" type="line"/>
      <point x="-5" y="699" type="line"/>
      <point x="-5" y="700" type="line"/>
    </contour>
    <contour>
      <point x="419" y="539" type="line"/>
      <point x="265" y="474" type="line"/>
      <point x="264" y="474" type="line"/>
      <point x="264" y="678" type="line"/>
      <point x="265" y="678" type="line"/>
      <point x="419" y="592" type="line"/>
    </contour>
    <contour>
      <point x="46" y="600" type="line"/>
      <point x="46" y="678" type="line"/>
      <point x="264" y="678" type="line"/>
      <point x="264" y="600" type="line"/>
    </contour>
    <contour>
      <point x="117" y="474" type="line"/>
      <point x="-5" y="580" type="line"/>
      <point x="-5" y="581" type="line"/>
      <point x="264" y="581" type="line"/>
      <point x="264" y="580" type="line"/>
      <point x="264" y="474" type="line"/>
    </contour>
  </outline>
</glyph>
<glyph name="ordmasculine.color2" format="2">
  <advance width="600"/>
  <unicode hex="00BA"/>
  <outline>
    <contour>
      <point x="512" y="597" type="line"/>
      <point x="389" y="490" type="line"/>
      <point x="388" y="490" type="line"/>
      <point x="388" y="686" type="line"/>
      <point x="512" y="686" type="line"/>
    </contour>
  </outline>
</glyph>
<glyph name="onehalf.color6" format="2">
  <advance width="600"/>
  <unicode hex="00BD"/>
  <outline>
    <contour>
      <point x="650" y="29" type="line"/>
      <point x="570" y="134" type="line"/>
      <point x="570" y="135" type="line"/>
      <point x="858" y="320" type="line"/>
      <point x="938" y="215" type="line"/>
    </contour>
  </outline>
</glyph>
<glyph name="threequarters.color2" format="2">
  <advance width="600"/>
  <unicode hex="00BE"/>
  <outline>
    <contour>
      <point x="419" y="539" type="line"/>
      <point x="265" y="474" type="line"/>
      <point x="264" y="474" type="line"/>
      <point x="264" y="678" type="line"/>
      <point x="265" y="678" type="line"/>
      <point x="419" y="592" type="line"/>
    </contour>
  </outline>
</glyph>
<glyph name="threequarters.color7" format="2">
  <advance width="600"/>
  <unicode hex="00BE"/>
  <outline>
    <contour>
      <point x="657" y="320" type="line"/>
      <point x="836" y="320" type="line"/>
      <point x="836" y="319" type="line"/>
      <point x="580" y="59" type="line"/>
      <point x="475" y="144" type="line"/>
    </contour>
  </outline>
</glyph>
<glyph name="threequarters" format="2">
  <advance width="950"/>
  <unicode hex="00BE"/>
  <outline>
    <contour>
      <point x="419" y="638" type="line"/>
      <point x="264" y="638" type="line"/>
      <point x="264" y="794" type="line"/>
      <point x="265" y="794" type="line"/>
      <point x="419" y="703" type="line"/>
    </contour>
    <contour>
      <point x="117" y="794" type="line"/>
      <point x="264" y="794" type="line"/>
      <point x="264" y="699" type="line"/>
      <point x="-5" y="699" type="line"/>
      <point x="-5" y="700" type="line"/>
    </contour>
    <contour>
      <point x="419" y="539" type="line"/>
      <point x="265" y="474" type="line"/>
      <point x="264" y="474" type="line"/>
      <point x="264" y="678" type="line"/>
      <point x="265" y="678" type="line"/>
      <point x="419" y="592" type="line"/>
    </contour>
    <contour>
      <point x="46" y="600" type="line"/>
      <point x="46" y="678" type="line"/>
      <point x="264" y="678" type="line"/>
      <point x="264" y="600" type="line"/>
    </contour>
    <contour>
      <point x="117" y="474" type="line"/>
      <point x="-5" y="580" type="line"/>
      <point x="-5" y="581" type="line"/>
      <point x="264" y="581" type="line"/>
      <point x="264" y="580" type="line"/>
      <point x="264" y="474" type="line"/>
    </contour>
    <contour>
      <point x="871" y="730" type="line"/>
      <point x="871" y="729" type="line"/>
      <point x="277" y="0" type="line"/>
      <point x="44" y="0" type="line"/>
      <point x="44" y="1" type="line"/>
      <point x="638" y="730" type="line"/>
    </contour>
    <contour>
      <point x="761" y="59" type="line"/>
      <point x="580" y="59" type="line"/>
      <point x="591" y="196" type="line"/>
      <point x="761" y="196" type="line"/>
    </contour>
    <contour>
      <point x="657" y="320" type="line"/>
      <point x="836" y="320" type="line"/>
      <point x="836" y="319" type="line"/>
      <point x="580" y="59" type="line"/>
      <point x="475" y="144" type="line"/>
    </contour>
    <contour>
      <point x="915" y="0" type="line"/>
      <point x="761" y="0" type="line"/>
      <point x="761" y="196" type="line"/>
      <point x="762" y="196" type="line"/>
      <point x="915" y="115" type="line"/>
    </contour>
  </outline>
</glyph>
<glyph name="Agrave.color4" format="2">
  <advance width="600"/>
  <unicode hex="00C0"/>
  <outline>
    <contour>
      <point x="565" y="760" type="line"/>
      <point x="439" y="760" type="line"/>
      <point x="324" y="899" type="line"/>
      <point x="324" y="900" type="line"/>
      <point x="530" y="900" type="line"/>
    </contour>
  </outline>
</glyph>
<glyph name="Aacute" format="2">
  <advance width="927"/>
  <unicode hex="00C1"/>
  <anchor x="462" y="0" name="bottom"/>
  <anchor x="486" y="730" name="top"/>
  <outline>
    <contour>
      <point x="35" y="523" type="line"/>
      <point x="288" y="730" type="line"/>
      <point x="289" y="730" type="line"/>
      <point x="289" y="0" type="line"/>
      <point x="35" y="0" type="line"/>
    </contour>
    <contour>
      <point x="690" y="730" type="line"/>
      <point x="892" y="487" type="line"/>
      <point x="892" y="486" type="line"/>
      <point x="289" y="486" type="line"/>
      <point x="289" y="730" type="line"/>
    </contour>
    <contour>
      <point x="892" y="0" type="line"/>
      <point x="638" y="0" type="line"/>
      <point x="638" y="486" type="line"/>
      <point x="639" y="486" type="line"/>
      <point x="892" y="486" type="line"/>
    </contour>
    <contour>
      <point x="638" y="173" type="line"/>
      <point x="289" y="173" type="line"/>
      <point x="289" y="417" type="line"/>
      <point x="638" y="417" type="line"/>
      <point x="638" y="416" type="line"/>
    </contour>
    <contour>
      <point x="402" y="760" type="line"/>
      <point x="437" y="900" type="line"/>
      <point x="643" y="900" type="line"/>
      <point x="643" y="899" type="line"/>
      <point x="528" y="760" type="line"/>
    </contour>
  </outline>
</glyph>
<glyph name="Atilde.color4" format="2">
  <advance width="600"/>
  <unicode hex="00C3"/>
  <outline>
    <contour>
      <point x="248" y="772" type="line"/>
      <point x="248" y="853" type="line"/>
      <point x="388" y="864" type="line"/>
      <point x="388" y="772" type="line"/>
    </contour>
  </outline>
</glyph>
<glyph name="Adieresis.color5" format="2">
  <advance width="600"/>
  <unicode hex="00C4"/>
  <outline>
    <contour>
      <point x="684" y="788" type="line"/>
      <point x="538" y="788" type="line"/>
      <point x="538" y="900" type="line"/>
      <point x="684" y="900" type="line"/>
    </contour>
  </outline>
</glyph>
<glyph name="Aring.color4" format="2">
  <advance width="600"/>
  <unicode hex="00C5"/>
  <outline>
    <contour>
      <point x="318" y="886" type="line"/>
      <point x="414" y="948" type="line"/>
      <point x="414" y="948" type="line"/>
      <point x="414" y="812" type="line"/>
      <point x="318" y="812" type="line"/>
    </contour>
  </outline>
</glyph>
<glyph name="Aring.color5" format="2">
  <advance width="600"/>
  <unicode hex="00C5"/>
  <outline>
    <contour>
      <point x="584" y="948" type="line"/>
      <point x="644" y="864" type="line"/>
      <point x="644" y="864" type="line"/>
      <point x="414" y="864" type="line"/>
      <point x="414" y="948" type="line"/>
    </contour>
  </outline>
</glyph>
<glyph name="AE.color1" format="2">
  <advance width="600"/>
  <unicode hex="00C6"/>
  <outline>
    <contour>
      <point x="279" y="0" type="line"/>
      <point x="25" y="0" type="line"/>
      <point x="25" y="523" type="line"/>
      <point x="278" y="730" type="line"/>
      <point x="279" y="730" type="line"/>
    </contour>
  </outline>
</glyph>
<glyph name="AE.color4" format="2">
  <advance width="600"/>
  <unicode hex="00C6"/>
  <outline>
    <contour>
      <point x="1315" y="244" type="line"/>
      <point x="1315" y="0" type="line"/>
      <point x="790" y="0" type="line"/>
      <point x="588" y="243" type="line"/>
      <point x="588" y="244" type="line"/>
    </contour>
  </outline>
</glyph>
<glyph name="AE.color5" format="2">
  <advance width="600"/>
  <unicode hex="00C6"/>
  <outline>
    <contour>
      <point x="842" y="244" type="line"/>
      <point x="588" y="244" type="line"/>
      <point x="588" y="486" type="line"/>
      <point x="842" y="486" type="line"/>
    </contour>
  </outline>
</glyph>
<glyph name="AE.color6" format="2">
  <advance width="600"/>
  <unicode hex="00C6"/>
  <outline>
    <contour>
      <point x="640" y="730" type="line"/>
      <point x="842" y="487" type="line"/>
      <point x="842" y="486" type="line"/>
      <point x="279" y="486" type="line"/>
      <point x="279" y="730" type="line"/>
    </contour>
  </outline>
</glyph>
<glyph name="Igrave.color5" format="2">
  <advance width="600"/>
  <unicode hex="00CC"/>
  <outline>
    <contour>
      <point x="450" y="760" type="line"/>
      <point x="324" y="760" type="line"/>
      <point x="209" y="899" type="line"/>
      <point x="209" y="900" type="line"/>
      <point x="415" y="900" type="line"/>
    </contour>
  </outline>
</glyph>
<glyph name="Icircumflex.color3" format="2">
  <advance width="600"/>
  <unicode hex="00CE"/>
  <outline>
    <contour>
      <point x="500" y="244" type="line"/>
      <point x="672" y="244" type="line"/>
      <point x="672" y="0" type="line"/>
      <point x="298" y="0" type="line"/>
    </contour>
  </outline>
</glyph>
<glyph name="Otilde.color4" format="2">
  <advance width="600"/>
  <unicode hex="00D5"/>
  <outline>
    <contour>
      <point x="238" y="772" type="line"/>
      <point x="238" y="853" type="line"/>
      <point x="378" y="864" type="line"/>
      <point x="378" y="772" type="line"/>
    </contour>
  </outline>
</glyph>
<glyph name="Otilde.color6" format="2">
  <advance width="600"/>
  <unicode hex="00D5"/>
  <outline>
    <contour>
      <point x="238" y="853" type="line"/>
      <point x="238" y="854" type="line"/>
      <point x="376" y="923" type="line"/>
      <point x="387" y="923" type="line"/>
      <point x="706" y="827" type="line"/>
      <point x="706" y="826" type="line"/>
      <point x="568" y="756" type="line"/>
      <point x="557" y="756" type="line"/>
    </contour>
  </outline>
</glyph>
<glyph name="Uacute" format="2">
  <advance width="907"/>
  <unicode hex="00DA"/>
  <anchor x="442" y="0" name="bottom"/>
  <anchor x="811" y="730" name="horn"/>
  <anchor x="476" y="730" name="top"/>
  <outline>
    <contour>
      <point x="882" y="207" type="line"/>
      <point x="629" y="0" type="line"/>
      <point x="628" y="0" type="line"/>
      <point x="628" y="730" type="line"/>
      <point x="882" y="730" type="line"/>
    </contour>
    <contour>
      <point x="237" y="0" type="line"/>
      <point x="35" y="243" type="line"/>
      <point x="35" y="244" type="line"/>
      <point x="628" y="244" type="line"/>
      <point x="628" y="0" type="line"/>
    </contour>
    <contour>
      <point x="35" y="730" type="line"/>
      <point x="289" y="730" type="line"/>
      <point x="289" y="244" type="line"/>
      <point x="288" y="244" type="line"/>
      <point x="35" y="244" type="line"/>
    </contour>
    <contour>
      <point x="392" y="760" type="line"/>
      <point x="427" y="900" type="line"/>
      <point x="633" y="900" type="line"/>
      <point x="633" y="899" type="line"/>
      <point x="518" y="760" type="line"/>
    </contour>
  </outline>
</glyph>
<glyph name="Yacute.color3" format="2">
  <advance width="600"/>
  <unicode hex="00DD"/>
  <outline>
    <contour>
      <point x="359" y="760" type="line"/>
      <point x="394" y="900" type="line"/>
      <point x="600" y="900" type="line"/>
      <point x="600" y="899" type="line"/>
      <point x="485" y="760" type="line"/>
    </contour>
  </outline>
</glyph>
<glyph name="Yacute" format="2">
  <advance width="840"/>
  <unicode hex="00DD"/>
  <anchor x="417" y="0" name="bottom"/>
  <anchor x="443" y="730" name="top"/>
  <outline>
    <contour>
      <point x="0" y="730" type="line"/>
      <point x="273" y="730" type="line"/>
      <point x="436" y="467" type="line"/>
      <point x="289" y="285" type="line"/>
      <point x="288" y="285" type="line"/>
    </contour>
    <contour>
      <point x="840" y="730" type="line"/>
      <point x="552" y="285" type="line"/>
      <point x="289" y="285" type="line"/>
      <point x="566" y="730" type="line"/>
    </contour>
    <contour>
      <point x="552" y="0" type="line"/>
      <point x="288" y="0" type="line"/>
      <point x="288" y="285" type="line"/>
      <point x="552" y="285" type="line"/>
    </contour>
    <contour>
      <point x="359" y="760" type="line"/>
      <point x="394" y="900" type="line"/>
      <point x="600" y="900" type="line"/>
      <point x="600" y="899" type="line"/>
      <point x="485" y="760" type="line"/>
    </contour>
  </outline>
</glyph>
<glyph name="acircumflex.color3" format="2">
  <advance width="600"/>
  <unicode hex="00E2"/>
  <outline>
    <contour>
      <point x="142" y="0" type="line"/>
      <point x="35" y="203" type="line"/>
      <point x="35" y="204" type="line"/>
      <point x="578" y="204" type="line"/>
      <point x="578" y="0" type="line"/>
    </contour>
  </outline>
</glyph>
<glyph name="ae.color6" format="2">
  <advance width="600"/>
  <unicode hex="00E6"/>
  <outline>
    <contour>
      <point x="792" y="0" type="line"/>
      <point x="792" y="199" type="line"/>
      <point x="792" y="200" type="line"/>
      <point x="1345" y="200" type="line"/>
      <point x="1345" y="199" type="line"/>
      <point x="1238" y="0" type="line"/>
    </contour>
  </outline>
</glyph>
<glyph name="ae" format="2">
  <advance width="1370"/>
  <unicode hex="00E6"/>
  <anchor x="452" y="530" name="top"/>
  <outline>
    <contour>
      <point x="132" y="0" type="line"/>
      <point x="25" y="203" type="line"/>
      <point x="25" y="204" type="line"/>
      <point x="578" y="204" type="line"/>
      <point x="792" y="0" type="line"/>
    </contour>
    <contour>
      <point x="1238" y="530" type="line"/>
      <point x="1345" y="352" type="line"/>
      <point x="1345" y="351" type="line"/>
      <point x="578" y="351" type="line"/>
      <point x="792" y="530" type="line"/>
    </contour>
    <contour>
      <point x="792" y="0" type="line"/>
      <point x="578" y="199" type="line"/>
      <point x="578" y="326" type="line"/>
      <point x="792" y="326" type="line"/>
    </contour>
    <contour>
      <point x="1131" y="331" type="line"/>
      <point x="1131" y="221" type="line"/>
      <point x="792" y="220" type="line"/>
      <point x="792" y="331" type="line"/>
    </contour>
    <contour>
      <point x="1345" y="328" type="line"/>
      <point x="1132" y="221" type="line"/>
      <point x="1131" y="221" type="line"/>
      <point x="1131" y="351" type="line"/>
      <point x="1345" y="351" type="line"/>
    </contour>
    <contour>
      <point x="35" y="423" type="line"/>
      <point x="248" y="530" type="line"/>
      <point x="249" y="530" type="line"/>
      <point x="249" y="204" type="line"/>
      <point x="35" y="204" type="line"/>
    </contour>
    <contour>
      <point x="792" y="0" type="line"/>
      <point x="792" y="199" type="line"/>
      <point x="792" y="200" type="line"/>
      <point x="1345" y="200" type="line"/>
      <point x="1345" y="199" type="line"/>
      <point x="1238" y="0" type="line"/>
    </contour>
    <contour>
      <point x="685" y="530" type="line"/>
      <point x="792" y="327" type="line"/>
      <point x="792" y="326" type="line"/>
      <point x="249" y="326" type="line"/>
      <point x="249" y="530" type="line"/>
    </contour>
  </outline>
</glyph>
<glyph name="ccedilla.color2" format="2">
  <advance width="600"/>
  <unicode hex="00E7"/>
  <outline>
    <contour>
      <point x="147" y="0" type="line"/>
      <point x="40" y="199" type="line"/>
      <point x="40" y="200" type="line"/>
      <point x="747" y="200" type="line"/>
      <point x="747" y="199" type="line"/>
      <point x="640" y="0" type="line"/>
    </contour>
  </outline>
</glyph>
<glyph name="ccedilla.color3" format="2">
  <advance width="600"/>
  <unicode hex="00E7"/>
  <outline>
    <contour>
      <point x="273" y="-260" type="line"/>
      <point x="213" y="-169" type="line"/>
      <point x="213" y="-168" type="line"/>
      <point x="431" y="-168" type="line"/>
      <point x="431" y="-260" type="line"/>
    </contour>
  </outline>
</glyph>
<glyph name="ccedilla" format="2">
  <advance width="757"/>
  <unicode hex="00E7"/>
  <anchor x="410" y="0" name="bottom"/>
  <anchor x="427" y="530" name="top"/>
  <outline>
    <contour>
      <point x="40" y="423" type="line"/>
      <point x="253" y="530" type="line"/>
      <point x="254" y="530" type="line"/>
      <point x="254" y="200" type="line"/>
      <point x="40" y="200" type="line"/>
    </contour>
    <contour>
      <point x="640" y="530" type="line"/>
      <point x="747" y="352" type="line"/>
      <point x="747" y="351" type="line"/>
      <point x="254" y="351" type="line"/>
      <point x="254" y="530" type="line"/>
    </contour>
    <contour>
      <point x="147" y="0" type="line"/>
      <point x="40" y="199" type="line"/>
      <point x="40" y="200" type="line"/>
      <point x="747" y="200" type="line"/>
      <point x="747" y="199" type="line"/>
      <point x="640" y="0" type="line"/>
    </contour>
    <contour>
      <point x="273" y="-260" type="line"/>
      <point x="213" y="-169" type="line"/>
      <point x="213" y="-168" type="line"/>
      <point x="431" y="-168" type="line"/>
      <point x="431" y="-260" type="line"/>
    </contour>
    <contour>
      <point x="539" y="-204" type="line"/>
      <point x="432" y="-260" type="line"/>
      <point x="431" y="-260" type="line"/>
      <point x="431" y="-126" type="line"/>
      <point x="539" y="-126" type="line"/>
    </contour>
    <contour>
      <point x="469" y="-32" type="line"/>
      <point x="539" y="-125" type="line"/>
      <point x="539" y="-126" type="line"/>
      <point x="389" y="-126" type="line"/>
      <point x="435" y="-32" type="line"/>
    </contour>
    <contour>
      <point x="273" y="-126" type="line"/>
      <point x="273" y="-125" type="line"/>
      <point x="350" y="0" type="line"/>
      <point x="455" y="0" type="line"/>
      <point x="455" y="-1" type="line"/>
      <point x="389" y="-126" type="line"/>
    </contour>
  </outline>
</glyph>
<glyph name="edieresis.color1" format="2">
  <advance width="600"/>
  <unicode hex="00EB"/>
  <outline>
    <contour>
      <point x="705" y="530" type="line"/>
      <point x="812" y="352" type="line"/>
      <point x="812" y="351" type="line"/>
      <point x="259" y="351" type="line"/>
      <point x="259" y="530" type="line"/>
    </contour>
  </outline>
</glyph>
<glyph name="igrave.color1" format="2">
  <advance width="600"/>
  <unicode hex="00EC"/>
  <outline>
    <contour>
      <point x="206" y="590" type="line"/>
      <point x="100" y="590" type="line"/>
      <point x="-5" y="819" type="line"/>
      <point x="-5" y="820" type="line"/>
      <point x="171" y="820" type="line"/>
    </contour>
  </outline>
</glyph>
<glyph name="iacute.color1" format="2">
  <advance width="600"/>
  <unicode hex="00ED"/>
  <outline>
    <contour>
      <point x="76" y="590" type="line"/>
      <point x="111" y="820" type="line"/>
      <point x="287" y="820" type="line"/>
      <point x="287" y="819" type="line"/>
      <point x="182" y="590" type="line"/>
    </contour>
  </outline>
</glyph>
<glyph name="iacute" format="2">
  <advance width="284"/>
  <unicode hex="00ED"/>
  <anchor x="141" y="0" name="bottom"/>
  <anchor x="149" y="530" name="top"/>
  <outline>
    <contour>
      <point x="45" y="530" type="line"/>
      <point x="238" y="530" type="line"/>
      <point x="239" y="503" type="line"/>
      <point x="239" y="0" type="line"/>
      <point x="45" y="0" type="line"/>
    </contour>
    <contour>
      <point x="76" y="590" type="line"/>
      <point x="111" y="820" type="line"/>
      <point x="287" y="820" type="line"/>
      <point x="287" y="819" type="line"/>
      <point x="182" y="590" type="line"/>
    </contour>
  </outline>
</glyph>
<glyph name="ntilde.color3" format="2">
  <advance width="600"/>
  <unicode hex="00F1"/>
  <outline>
    <contour>
      <point x="233" y="601" type="line"/>
      <point x="233" y="722" type="line"/>
      <point x="353" y="703" type="line"/>
      <point x="353" y="601" type="line"/>
    </contour>
  </outline>
</glyph>
<glyph name="otilde.color6" format="2">
  <advance width="600"/>
  <unicode hex="00F5"/>
  <outline>
    <contour>
      <point x="229" y="722" type="line"/>
      <point x="229" y="723" type="line"/>
      <point x="358" y="762" type="line"/>
      <point x="359" y="762" type="line"/>
      <point x="627" y="630" type="line"/>
      <point x="627" y="629" type="line"/>
      <point x="499" y="590" type="line"/>
      <point x="498" y="590" type="line"/>
    </contour>
  </outline>
</glyph>
<glyph name="uacute.color3" format="2">
  <advance width="600"/>
  <unicode hex="00FA"/>
  <outline>
    <contour>
      <point x="349" y="590" type="line"/>
      <point x="384" y="820" type="line"/>
      <point x="560" y="820" type="line"/>
      <point x="560" y="819" type="line"/>
      <point x="455" y="590" type="line"/>
    </contour>
  </outline>
</glyph>
<glyph name="yacute.color4" format="2">
  <advance width="600"/>
  <unicode hex="00FD"/>
  <outline>
    <contour>
      <point x="349" y="590" type="line"/>
      <point x="384" y="820" type="line"/>
      <point x="560" y="820" type="line"/>
      <point x="560" y="819" type="line"/>
      <point x="455" y="590" type="line"/>
    </contour>
  </outline>
</glyph>
<glyph name="Abreve.color5" format="2">
  <advance width="600"/>
  <unicode hex="0102"/>
  <outline>
    <contour>
      <point x="514" y="860" type="line"/>
      <point x="551" y="900" type="line"/>
      <point x="727" y="900" type="line"/>
      <point x="727" y="899" type="line"/>
      <point x="693" y="860" type="line"/>
    </contour>
  </outline>
</glyph>
<glyph name="Aogonek.color4" format="2">
  <advance width="600"/>
  <unicode hex="0104"/>
  <outline>
    <contour>
      <point x="571" y="-230" type="line"/>
      <point x="453" y="-230" type="line"/>
      <point x="453" y="-138" type="line"/>
      <point x="631" y="-138" type="line"/>
      <point x="631" y="-139" type="line"/>
    </contour>
  </outline>
</glyph>
<glyph name="Aogonek.color5" format="2">
  <advance width="600"/>
  <unicode hex="0104"/>
  <outline>
    <contour>
      <point x="325" y="-86" type="line"/>
      <point x="325" y="-85" type="line"/>
      <point x="402" y="0" type="line"/>
      <point x="527" y="0" type="line"/>
      <point x="527" y="-1" type="line"/>
      <point x="453" y="-86" type="line"/>
    </contour>
  </outline>
</glyph>
<glyph name="Aogonek.color6" format="2">
  <advance width="600"/>
  <unicode hex="0104"/>
  <outline>
    <contour>
      <point x="325" y="-174" type="line"/>
      <point x="325" y="-86" type="line"/>
      <point x="453" y="-86" type="line"/>
      <point x="453" y="-230" type="line"/>
      <point x="452" y="-230" type="line"/>
    </contour>
  </outline>
</glyph>
<glyph name="Cacute" format="2">
  <advance width="862"/>
  <unicode hex="0106"/>
  <anchor x="482" y="0" name="bottom"/>
  <anchor x="476" y="730" name="top"/>
  <outline>
    <contour>
      <point x="25" y="523" type="line"/>
      <point x="278" y="730" type="line"/>
      <point x="279" y="730" type="line"/>
      <point x="279" y="244" type="line"/>
      <point x="25" y="244" type="line"/>
    </contour>
    <contour>
      <point x="660" y="730" type="line"/>
      <point x="862" y="487" type="line"/>
      <point x="862" y="486" type="line"/>
      <point x="279" y="486" type="line"/>
      <point x="279" y="730" type="line"/>
    </contour>
    <contour>
      <point x="227" y="0" type="line"/>
      <point x="25" y="243" type="line"/>
      <point x="25" y="244" type="line"/>
      <point x="862" y="244" type="line"/>
      <point x="660" y="0" type="line"/>
    </contour>
    <contour>
      <point x="392" y="760" type="line"/>
      <point x="427" y="900" type="line"/>
      <point x="633" y="900" type="line"/>
      <point x="633" y="899" type="line"/>
      <point x="518" y="760" type="line"/>
    </contour>
  </outline>
</glyph>
<glyph name="cacute.color3" format="2">
  <advance width="600"/>
  <unicode hex="0107"/>
  <outline>
    <contour>
      <point x="354" y="590" type="line"/>
      <point x="389" y="820" type="line"/>
      <point x="565" y="820" type="line"/>
      <point x="565" y="819" type="line"/>
      <point x="460" y="590" type="line"/>
    </contour>
  </outline>
</glyph>
<glyph name="cacute" format="2">
  <advance width="757"/>
  <unicode hex="0107"/>
  <anchor x="410" y="0" name="bottom"/>
  <anchor x="427" y="530" name="top"/>
  <outline>
    <contour>
      <point x="40" y="423" type="line"/>
      <point x="253" y="530" type="line"/>
      <point x="254" y="530" type="line"/>
      <point x="254" y="200" type="line"/>
      <point x="40" y="200" type="line"/>
    </contour>
    <contour>
      <point x="640" y="530" type="line"/>
      <point x="747" y="352" type="line"/>
      <point x="747" y="351" type="line"/>
      <point x="254" y="351" type="line"/>
      <point x="254" y="530" type="line"/>
    </contour>
    <contour>
      <point x="147" y="0" type="line"/>
      <point x="40" y="199" type="line"/>
      <point x="40" y="200" type="line"/>
      <point x="747" y="200" type="line"/>
      <point x="747" y="199" type="line"/>
      <point x="640" y="0" type="line"/>
    </contour>
    <contour>
      <point x="354" y="590" type="line"/>
      <point x="389" y="820" type="line"/>
      <point x="565" y="820" type="line"/>
      <point x="565" y="819" type="line"/>
      <point x="460" y="590" type="line"/>
    </contour>
  </outline>
</glyph>
<glyph name="Ccircumflex.color4" format="2">
  <advance width="600"/>
  <unicode hex="0108"/>
  <outline>
    <contour>
      <point x="250" y="760" type="line"/>
      <point x="250" y="761" type="line"/>
      <point x="404" y="900" type="line"/>
      <point x="558" y="900" type="line"/>
      <point x="404" y="760" type="line"/>
    </contour>
  </outline>
</glyph>
<glyph name="ccircumflex.color4" format="2">
  <advance width="600"/>
  <unicode hex="0109"/>
  <outline>
    <contour>
      <point x="201" y="592" type="line"/>
      <point x="345" y="770" type="line"/>
      <point x="489" y="770" type="line"/>
      <point x="355" y="592" type="line"/>
    </contour>
  </outline>
</glyph>
<glyph name="ccircumflex" format="2">
  <advance width="757"/>
  <unicode hex="0109"/>
  <anchor x="410" y="0" name="bottom"/>
  <anchor x="429" y="750" name="top"/>
  <outline>
    <contour>
      <point x="40" y="423" type="line"/>
      <point x="253" y="530" type="line"/>
      <point x="254" y="530" type="line"/>
      <point x="254" y="200" type="line"/>
      <point x="40" y="200" type="line"/>
    </contour>
    <contour>
      <point x="640" y="530" type="line"/>
      <point x="747" y="352" type="line"/>
      <point x="747" y="351" type="line"/>
      <point x="254" y="351" type="line"/>
      <point x="254" y="530" type="line"/>
    </contour>
    <contour>
      <point x="147" y="0" type="line"/>
      <point x="40" y="199" type="line"/>
      <point x="40" y="200" type="line"/>
      <point x="747" y="200" type="line"/>
      <point x="747" y="199" type="line"/>
      <point x="640" y="0" type="line"/>
    </contour>
    <contour>
      <point x="627" y="592" type="line"/>
      <point x="470" y="592" type="line"/>
      <point x="366" y="739" type="line"/>
      <point x="448" y="770" type="line"/>
      <point x="489" y="770" type="line"/>
    </contour>
    <contour>
      <point x="201" y="592" type="line"/>
      <point x="345" y="770" type="line"/>
      <point x="489" y="770" type="line"/>
      <point x="355" y="592" type="line"/>
    </contour>
  </outline>
</glyph>
<glyph name="ccaron.color1" format="2">
  <advance width="600"/>
  <unicode hex="010D"/>
  <outline>
    <contour>
      <point x="640" y="530" type="line"/>
      <point x="747" y="352" type="line"/>
      <point x="747" y="351" type="line"/>
      <point x="254" y="351" type="line"/>
      <point x="254" y="530" type="line"/>
    </contour>
  </outline>
</glyph>
<glyph name="ccaron.color3" format="2">
  <advance width="600"/>
  <unicode hex="010D"/>
  <outline>
    <contour>
      <point x="198" y="750" type="line"/>
      <point x="355" y="750" type="line"/>
      <point x="459" y="613" type="line"/>
      <point x="377" y="582" type="line"/>
      <point x="336" y="582" type="line"/>
    </contour>
  </outline>
</glyph>
<glyph name="Dcaron.color3" format="2">
  <advance width="600"/>
  <unicode hex="010E"/>
  <outline>
    <contour>
      <point x="35" y="-4" type="line"/>
      <point x="35" y="239" type="line"/>
      <point x="35" y="240" type="line"/>
      <point x="668" y="240" type="line"/>
      <point x="668" y="-4" type="line"/>
    </contour>
  </outline>
</glyph>
<glyph name="dcaron.color0" format="2">
  <advance width="600"/>
  <unicode hex="010F"/>
  <outline>
    <contour>
      <point x="45" y="423" type="line"/>
      <point x="258" y="530" type="line"/>
      <point x="259" y="530" type="line"/>
      <point x="259" y="204" type="line"/>
      <point x="45" y="204" type="line"/>
    </contour>
  </outline>
</glyph>
<glyph name="dcaron.color2" format="2">
  <advance width="600"/>
  <unicode hex="010F"/>
  <outline>
    <contour>
      <point x="783" y="107" type="line"/>
      <point x="570" y="0" type="line"/>
      <point x="569" y="0" type="line"/>
      <point x="569" y="326" type="line"/>
      <point x="783" y="326" type="line"/>
    </contour>
  </outline>
</glyph>
<glyph name="dcaron.color3" format="2">
  <advance width="600"/>
  <unicode hex="010F"/>
  <outline>
    <contour>
      <point x="147" y="0" type="line"/>
      <point x="45" y="203" type="line"/>
      <point x="45" y="204" type="line"/>
      <point x="569" y="204" type="line"/>
      <point x="569" y="0" type="line"/>
    </contour>
  </outline>
</glyph>
<glyph name="Dcroat" format="2">
  <advance width="983"/>
  <unicode hex="0110"/>
  <anchor x="302" y="361" name="_stroke"/>
  <anchor x="212" y="361" name="stroke"/>
  <anchor x="522" y="730" name="top"/>
  <outline>
    <contour>
      <point x="599" y="269" type="line"/>
      <point x="5" y="269" type="line"/>
      <point x="5" y="453" type="line"/>
      <point x="599" y="453" type="line"/>
      <point x="599" y="452" type="line"/>
    </contour>
    <contour>
      <point x="81" y="730" type="line"/>
      <point x="334" y="730" type="line"/>
      <point x="335" y="730" type="line"/>
      <point x="335" y="240" type="line"/>
      <point x="81" y="240" type="line"/>
    </contour>
    <contour>
      <point x="766" y="730" type="line"/>
      <point x="968" y="487" type="line"/>
      <point x="968" y="486" type="line"/>
      <point x="335" y="486" type="line"/>
      <point x="335" y="730" type="line"/>
    </contour>
    <contour>
      <point x="968" y="193" type="line"/>
      <point x="715" y="-4" type="line"/>
      <point x="714" y="-4" type="line"/>
      <point x="714" y="486" type="line"/>
      <point x="968" y="486" type="line"/>
    </contour>
    <contour>
      <point x="81" y="-4" type="line"/>
      <point x="81" y="239" type="line"/>
      <point x="81" y="240" type="line"/>
      <point x="714" y="240" type="line"/>
      <point x="714" y="-4" type="line"/>
    </contour>
  </outline>
</glyph>
<glyph name="ebreve.color5" format="2">
  <advance width="600"/>
  <unicode hex="0115"/>
  <outline>
    <contour>
      <point x="365" y="720" type="line"/>
      <point x="219" y="720" type="line"/>
      <point x="182" y="778" type="line"/>
      <point x="182" y="780" type="line"/>
      <point x="328" y="780" type="line"/>
    </contour>
  </outline>
</glyph>
<glyph name="ebreve.color6" format="2">
  <advance width="600"/>
  <unicode hex="0115"/>
  <outline>
    <contour>
      <point x="480" y="720" type="line"/>
      <point x="517" y="780" type="line"/>
      <point x="653" y="780" type="line"/>
      <point x="653" y="779" type="line"/>
      <point x="616" y="720" type="line"/>
    </contour>
  </outline>
</glyph>
<glyph name="Eogonek.color6" format="2">
  <advance width="600"/>
  <unicode hex="0118"/>
  <outline>
    <contour>
      <point x="305" y="-174" type="line"/>
      <point x="305" y="-86" type="line"/>
      <point x="433" y="-86" type="line"/>
      <point x="433" y="-230" type="line"/>
      <point x="432" y="-230" type="line"/>
    </contour>
  </outline>
</glyph>
<glyph name="eogonek.color7" format="2">
  <advance width="600"/>
  <unicode hex="0119"/>
  <outline>
    <contour>
      <point x="294" y="-174" type="line"/>
      <point x="294" y="-86" type="line"/>
      <point x="422" y="-86" type="line"/>
      <point x="422" y="-230" type="line"/>
      <point x="421" y="-230" type="line"/>
    </contour>
  </outline>
</glyph>
<glyph name="Ecaron.color1" format="2">
  <advance width="600"/>
  <unicode hex="011A"/>
  <outline>
    <contour>
      <point x="650" y="486" type="line"/>
      <point x="289" y="486" type="line"/>
      <point x="289" y="730" type="line"/>
      <point x="852" y="730" type="line"/>
      <point x="852" y="729" type="line"/>
    </contour>
  </outline>
</glyph>
<glyph name="gcircumflex.color2" format="2">
  <advance width="600"/>
  <unicode hex="011D"/>
  <outline>
    <contour>
      <point x="35" y="423" type="line"/>
      <point x="248" y="530" type="line"/>
      <point x="249" y="530" type="line"/>
      <point x="249" y="204" type="line"/>
      <point x="35" y="204" type="line"/>
    </contour>
  </outline>
</glyph>
<glyph name="Itilde.color7" format="2">
  <advance width="600"/>
  <unicode hex="0128"/>
  <outline>
    <contour>
      <point x="133" y="853" type="line"/>
      <point x="133" y="854" type="line"/>
      <point x="271" y="923" type="line"/>
      <point x="282" y="923" type="line"/>
      <point x="601" y="827" type="line"/>
      <point x="601" y="826" type="line"/>
      <point x="463" y="756" type="line"/>
      <point x="452" y="756" type="line"/>
    </contour>
  </outline>
</glyph>
<glyph name="itilde" format="2">
  <advance width="334"/>
  <unicode hex="0129"/>
  <anchor x="173" y="0" name="bottom"/>
  <anchor x="181" y="530" name="top"/>
  <outline>
    <contour>
      <point x="77" y="530" type="line"/>
      <point x="270" y="530" type="line"/>
      <point x="271" y="503" type="line"/>
      <point x="271" y="0" type="line"/>
      <point x="77" y="0" type="line"/>
    </contour>
    <contour>
      <point x="18" y="603" type="line"/>
      <point x="18" y="722" type="line"/>
      <point x="123" y="713" type="line"/>
      <point x="123" y="603" type="line"/>
    </contour>
    <contour>
      <point x="316" y="759" type="line"/>
      <point x="316" y="640" type="line"/>
      <point x="211" y="640" type="line"/>
      <point x="211" y="759" type="line"/>
    </contour>
    <contour>
      <point x="18" y="722" type="line"/>
      <point x="18" y="723" type="line"/>
      <point x="106" y="762" type="line"/>
      <point x="107" y="762" type="line"/>
      <point x="316" y="640" type="line"/>
      <point x="316" y="639" type="line"/>
      <point x="228" y="600" type="line"/>
      <point x="227" y="600" type="line"/>
    </contour>
  </outline>
</glyph>
<glyph name="Ibreve.color6" format="2">
  <advance width="600"/>
  <unicode hex="012C"/>
  <outline>
    <contour>
      <point x="399" y="860" type="line"/>
      <point x="436" y="900" type="line"/>
      <point x="612" y="900" type="line"/>
      <point x="612" y="899" type="line"/>
      <point x="578" y="860" type="line"/>
    </contour>
  </outline>
</glyph>
<glyph name="Jcircumflex.color0" format="2">
  <advance width="600"/>
  <unicode hex="0134"/>
  <outline>
    <contour>
      <point x="246" y="240" type="line"/>
      <point x="246" y="486" type="line"/>
      <point x="448" y="730" type="line"/>
      <point x="500" y="730" type="line"/>
      <point x="500" y="240" type="line"/>
    </contour>
  </outline>
</glyph>
<glyph name="Jcircumflex.color4" format="2">
  <advance width="600"/>
  <unicode hex="0134"/>
  <outline>
    <contour>
      <point x="626" y="760" type="line"/>
      <point x="469" y="760" type="line"/>
      <point x="335" y="867" type="line"/>
      <point x="427" y="900" type="line"/>
      <point x="468" y="900" type="line"/>
      <point x="626" y="761" type="line"/>
    </contour>
  </outline>
</glyph>
<glyph name="jcircumflex.color0" format="2">
  <advance width="600"/>
  <unicode hex="0135"/>
  <outline>
    <contour>
      <point x="62" y="530" type="line"/>
      <point x="255" y="530" type="line"/>
      <point x="256" y="530" type="line"/>
      <point x="256" y="-93" type="line"/>
      <point x="63" y="-200" type="line"/>
      <point x="62" y="-200" type="line"/>
    </contour>
  </outline>
</glyph>
<glyph name="Ldot" format="2">
  <advance width="793"/>
  <unicode hex="013F"/>
  <anchor x="445" y="0" name="bottom"/>
  <anchor x="173" y="730" name="top"/>
  <outline>
    <contour>
      <point x="35" y="730" type="line"/>
      <point x="288" y="730" type="line"/>
      <point x="289" y="730" type="line"/>
      <point x="289" y="240" type="line"/>
      <point x="35" y="240" type="line"/>
    </contour>
    <contour>
      <point x="237" y="-4" type="line"/>
      <point x="35" y="239" type="line"/>
      <point x="35" y="240" type="line"/>
      <point x="768" y="240" type="line"/>
      <point x="768" y="-4" type="line"/>
    </contour>
    <contour>
      <point x="641" y="380" type="line"/>
      <point x="409" y="380" type="line"/>
      <point x="409" y="584" type="line"/>
      <point x="641" y="584" type="line"/>
    </contour>
  </outline>
</glyph>
<glyph name="Lslash.color0" format="2">
  <advance width="600"/>
  <unicode hex="0141"/>
  <outline>
    <contour>
      <point x="542" y="559" type="line"/>
      <point x="96" y="223" type="line"/>
      <point x="0" y="363" type="line"/>
      <point x="446" y="699" type="line"/>
      <point x="447" y="698" type="line"/>
    </contour>
  </outline>
</glyph>
<glyph name="Lslash" format="2">
  <advance width="888"/>
  <unicode hex="0141"/>
  <anchor x="550" y="0" name="bottom"/>
  <anchor x="278" y="730" name="top"/>
  <outline>
    <contour>
      <point x="542" y="559" type="line"/>
      <point x="96" y="223" type="line"/>
      <point x="0" y="363" type="line"/>
      <point x="446" y="699" type="line"/>
      <point x="447" y="698" type="line"/>
    </contour>
    <contour>
      <point x="140" y="730" type="line"/>
      <point x="393" y="730" type="line"/>
      <point x="394" y="730" type="line"/>
      <point x="394" y="240" type="line"/>
      <point x="140" y="240" type="line"/>
    </contour>
    <contour>
      <point x="342" y="-4" type="line"/>
      <point x="140" y="239" type="line"/>
      <point x="140" y="240" type="line"/>
      <point x="873" y="240" type="line"/>
      <point x="873" y="-4" type="line"/>
    </contour>
  </outline>
</glyph>
<glyph name="lslash.color0" format="2">
  <advance width="600"/>
  <unicode hex="0142"/>
  <outline>
    <contour>
      <point x="537" y="559" type="line"/>
      <point x="91" y="223" type="line"/>
      <point x="-5" y="363" type="line"/>
      <point x="441" y="699" type="line"/>
      <point x="442" y="698" type="line"/>
    </contour>
  </outline>
</glyph>
<glyph name="nacute" format="2">
  <advance width="807"/>
  <unicode hex="0144"/>
  <anchor x="395" y="0" name="bottom"/>
  <anchor x="446" y="530" name="top"/>
  <outline>
    <contour>
      <point x="35" y="423" type="line"/>
      <point x="248" y="530" type="line"/>
      <point x="249" y="530" type="line"/>
      <point x="249" y="0" type="line"/>
      <point x="35" y="0" type="line"/>
    </contour>
    <contour>
      <point x="665" y="530" type="line"/>
      <point x="772" y="327" type="line"/>
      <point x="772" y="326" type="line"/>
      <point x="249" y="326" type="line"/>
      <point x="249" y="530" type="line"/>
    </contour>
    <contour>
      <point x="772" y="41" type="line"/>
      <point x="559" y="-6" type="line"/>
      <point x="558" y="-6" type="line"/>
      <point x="558" y="326" type="line"/>
      <point x="772" y="326" type="line"/>
    </contour>
    <contour>
      <point x="373" y="590" type="line"/>
      <point x="408" y="820" type="line"/>
      <point x="584" y="820" type="line"/>
      <point x="584" y="819" type="line"/>
      <point x="479" y="590" type="line"/>
    </contour>
  </outline>
</glyph>
<glyph name="Ncaron.color0" format="2">
  <advance width="600"/>
  <unicode hex="0147"/>
  <outline>
    <contour>
      <point x="35" y="0" type="line"/>
      <point x="35" y="571" type="line"/>
      <point x="289" y="345" type="line"/>
      <point x="289" y="0" type="line"/>
    </contour>
  </outline>
</glyph>
<glyph name="Ncaron.color3" format="2">
  <advance width="600"/>
  <unicode hex="0147"/>
  <outline>
    <contour>
      <point x="224" y="900" type="line"/>
      <point x="381" y="900" type="line"/>
      <point x="515" y="793" type="line"/>
      <point x="423" y="760" type="line"/>
      <point x="382" y="760" type="line"/>
    </contour>
  </outline>
</glyph>
<glyph name="ncaron.color3" format="2">
  <advance width="600"/>
  <unicode hex="0148"/>
  <outline>
    <contour>
      <point x="217" y="750" type="line"/>
      <point x="374" y="750" type="line"/>
      <point x="478" y="613" type="line"/>
      <point x="396" y="582" type="line"/>
      <point x="355" y="582" type="line"/>
    </contour>
  </outline>
</glyph>
<glyph name="Omacron" format="2">
  <advance width="907"/>
  <unicode hex="014C"/>
  <anchor x="452" y="0" name="bottom"/>
  <anchor x="680" y="730" name="horn"/>
  <anchor x="476" y="730" name="top"/>
  <outline>
    <contour>
      <point x="25" y="523" type="line"/>
      <point x="278" y="730" type="line"/>
      <point x="279" y="730" type="line"/>
      <point x="279" y="244" type="line"/>
      <point x="25" y="244" type="line"/>
    </contour>
    <contour>
      <point x="680" y="730" type="line"/>
      <point x="882" y="487" type="line"/>
      <point x="882" y="486" type="line"/>
      <point x="279" y="486" type="line"/>
      <point x="279" y="730" type="line"/>
    </contour>
    <contour>
      <point x="882" y="197" type="line"/>
      <point x="629" y="0" type="line"/>
      <point x="628" y="0" type="line"/>
      <point x="628" y="486" type="line"/>
      <point x="882" y="486" type="line"/>
    </contour>
    <contour>
      <point x="227" y="0" type="line"/>
      <point x="25" y="243" type="line"/>
      <point x="25" y="244" type="line"/>
      <point x="628" y="244" type="line"/>
      <point x="628" y="0" type="line"/>
    </contour>
    <contour>
      <point x="674" y="798" type="line"/>
      <point x="278" y="798" type="line"/>
      <point x="278" y="900" type="line"/>
      <point x="674" y="900" type="line"/>
    </contour>
  </outline>
</glyph>
<glyph name="omacron.color4" format="2">
  <advance width="600"/>
  <unicode hex="014D"/>
  <outline>
    <contour>
      <point x="640" y="628" type="line"/>
      <point x="214" y="628" type="line"/>
      <point x="214" y="740" type="line"/>
      <point x="640" y="740" type="line"/>
    </contour>
  </outline>
</glyph>
<glyph name="obreve.color4" format="2">
  <advance width="600"/>
  <unicode hex="014F"/>
  <outline>
    <contour>
      <point x="365" y="720" type="line"/>
      <point x="219" y="720" type="line"/>
      <point x="182" y="778" type="line"/>
      <point x="182" y="780" type="line"/>
      <point x="328" y="780" type="line"/>
    </contour>
  </outline>
</glyph>
<glyph name="ohungarumlaut.color4" format="2">
  <advance width="600"/>
  <unicode hex="0151"/>
  <outline>
    <contour>
      <point x="279" y="590" type="line"/>
      <point x="314" y="820" type="line"/>
      <point x="490" y="820" type="line"/>
      <point x="490" y="819" type="line"/>
      <point x="375" y="590" type="line"/>
    </contour>
  </outline>
</glyph>
<glyph name="ohungarumlaut.color5" format="2">
  <advance width="600"/>
  <unicode hex="0151"/>
  <outline>
    <contour>
      <point x="479" y="590" type="line"/>
      <point x="514" y="820" type="line"/>
      <point x="690" y="820" type="line"/>
      <point x="690" y="819" type="line"/>
      <point x="575" y="590" type="line"/>
    </contour>
  </outline>
</glyph>
<glyph name="OE.color1" format="2">
  <advance width="600"/>
  <unicode hex="0152"/>
  <outline>
    <contour>
      <point x="1204" y="486" type="line"/>
      <point x="882" y="486" type="line"/>
      <point x="680" y="730" type="line"/>
      <point x="1406" y="730" type="line"/>
      <point x="1406" y="729" type="line"/>
    </contour>
  </outline>
</glyph>
<glyph name="Racute.color4" format="2">
  <advance width="600"/>
  <unicode hex="0154"/>
  <outline>
    <contour>
      <point x="289" y="173" type="line"/>
      <point x="289" y="417" type="line"/>
      <point x="628" y="417" type="line"/>
      <point x="628" y="416" type="line"/>
      <point x="628" y="173" type="line"/>
    </contour>
  </outline>
</glyph>
<glyph name="Rcaron" format="2">
  <advance width="926"/>
  <unicode hex="0158"/>
  <anchor x="424" y="0" name="bottom"/>
  <anchor x="416" y="730" name="top"/>
  <outline>
    <contour>
      <point x="901" y="0" type="line"/>
      <point x="590" y="0" type="line"/>
      <point x="499" y="173" type="line"/>
      <point x="699" y="329" type="line"/>
    </contour>
    <contour>
      <point x="35" y="730" type="line"/>
      <point x="288" y="730" type="line"/>
      <point x="289" y="730" type="line"/>
      <point x="289" y="0" type="line"/>
      <point x="35" y="0" type="line"/>
    </contour>
    <contour>
      <point x="680" y="730" type="line"/>
      <point x="882" y="487" type="line"/>
      <point x="882" y="486" type="line"/>
      <point x="289" y="486" type="line"/>
      <point x="289" y="730" type="line"/>
    </contour>
    <contour>
      <point x="882" y="370" type="line"/>
      <point x="629" y="173" type="line"/>
      <point x="628" y="173" type="line"/>
      <point x="628" y="486" type="line"/>
      <point x="882" y="486" type="line"/>
    </contour>
    <contour>
      <point x="289" y="173" type="line"/>
      <point x="289" y="417" type="line"/>
      <point x="628" y="417" type="line"/>
      <point x="628" y="416" type="line"/>
      <point x="628" y="173" type="line"/>
    </contour>
    <contour>
      <point x="184" y="900" type="line"/>
      <point x="341" y="900" type="line"/>
      <point x="475" y="793" type="line"/>
      <point x="383" y="760" type="line"/>
      <point x="342" y="760" type="line"/>
    </contour>
    <contour>
      <point x="650" y="900" type="line"/>
      <point x="496" y="760" type="line"/>
      <point x="342" y="760" type="line"/>
      <point x="496" y="900" type="line"/>
    </contour>
  </outline>
</glyph>
<glyph name="Sacute.color5" format="2">
  <advance width="600"/>
  <unicode hex="015A"/>
  <outline>
    <contour>
      <point x="392" y="760" type="line"/>
      <point x="427" y="900" type="line"/>
      <point x="633" y="900" type="line"/>
      <point x="633" y="899" type="line"/>
      <point x="518" y="760" type="line"/>
    </contour>
  </outline>
</glyph>
<glyph name="sacute" format="2">
  <advance width="674"/>
  <unicode hex="015B"/>
  <anchor x="342" y="0" name="bottom"/>
  <anchor x="344" y="530" name="top"/>
  <outline>
    <contour>
      <point x="535" y="530" type="line"/>
      <point x="642" y="352" type="line"/>
      <point x="642" y="351" type="line"/>
      <point x="148" y="351" type="line"/>
      <point x="122" y="530" type="line"/>
    </contour>
    <contour>
      <point x="384" y="149" type="line"/>
      <point x="32" y="365" type="line"/>
      <point x="122" y="530" type="line"/>
      <point x="652" y="180" type="line"/>
      <point x="652" y="179" type="line"/>
    </contour>
    <contour>
      <point x="129" y="0" type="line"/>
      <point x="22" y="178" type="line"/>
      <point x="22" y="179" type="line"/>
      <point x="652" y="179" type="line"/>
      <point x="545" y="0" type="line"/>
    </contour>
    <contour>
      <point x="271" y="590" type="line"/>
      <point x="306" y="820" type="line"/>
      <point x="482" y="820" type="line"/>
      <point x="482" y="819" type="line"/>
      <point x="377" y="590" type="line"/>
    </contour>
  </outline>
</glyph>
<glyph name="scircumflex.color3" format="2">
  <advance width="600"/>
  <unicode hex="015D"/>
  <outline>
    <contour>
      <point x="544" y="592" type="line"/>
      <point x="387" y="592" type="line"/>
      <point x="283" y="739" type="line"/>
      <point x="365" y="770" type="line"/>
      <point x="406" y="770" type="line"/>
    </contour>
  </outline>
</glyph>
<glyph name="Scedilla.color8" format="2">
  <advance width="600"/>
  <unicode hex="015E"/>
  <outline>
    <contour>
      <point x="315" y="-126" type="line"/>
      <point x="315" y="-125" type="line"/>
      <point x="392" y="0" type="line"/>
      <point x="497" y="0" type="line"/>
      <point x="497" y="-1" type="line"/>
      <point x="431" y="-126" type="line"/>
    </contour>
  </outline>
</glyph>
<glyph name="scedilla.color4" format="2">
  <advance width="600"/>
  <unicode hex="015F"/>
  <outline>
    <contour>
      <point x="471" y="-204" type="line"/>
      <point x="364" y="-260" type="line"/>
      <point x="363" y="-260" type="line"/>
      <point x="363" y="-126" type="line"/>
      <point x="471" y="-126" type="line"/>
    </contour>
  </outline>
</glyph>
<glyph name="scedilla.color5" format="2">
  <advance width="600"/>
  <unicode hex="015F"/>
  <outline>
    <contour>
      <point x="401" y="-32" type="line"/>
      <point x="471" y="-125" type="line"/>
      <point x="471" y="-126" type="line"/>
      <point x="321" y="-126" type="line"/>
      <point x="367" y="-32" type="line"/>
    </contour>
  </outline>
</glyph>
<glyph name="scaron.color1" format="2">
  <advance width="600"/>
  <unicode hex="0161"/>
  <outline>
    <contour>
      <point x="384" y="149" type="line"/>
      <point x="32" y="365" type="line"/>
      <point x="122" y="530" type="line"/>
      <point x="652" y="180" type="line"/>
      <point x="652" y="179" type="line"/>
    </contour>
  </outline>
</glyph>
<glyph name="scaron.color3" format="2">
  <advance width="600"/>
  <unicode hex="0161"/>
  <outline>
    <contour>
      <point x="115" y="750" type="line"/>
      <point x="272" y="750" type="line"/>
      <point x="376" y="613" type="line"/>
      <point x="294" y="582" type="line"/>
      <point x="253" y="582" type="line"/>
    </contour>
  </outline>
</glyph>
<glyph name="Tcedilla" format="2">
  <advance width="886"/>
  <unicode hex="0162"/>
  <anchor x="433" y="0" name="bottom"/>
  <anchor x="433" y="365" name="stroke"/>
  <anchor x="436" y="730" name="top"/>
  <outline>
    <contour>
      <point x="306" y="486" type="line"/>
      <point x="508" y="730" type="line"/>
      <point x="560" y="730" type="line"/>
      <point x="560" y="0" type="line"/>
      <point x="358" y="0" type="line"/>
      <point x="305" y="0" type="line"/>
    </contour>
    <contour>
      <point x="306" y="486" type="line"/>
      <point x="25" y="486" type="line"/>
      <point x="25" y="730" type="line"/>
      <point x="508" y="730" type="line"/>
    </contour>
    <contour>
      <point x="861" y="486" type="line"/>
      <point x="560" y="486" type="line"/>
      <point x="560" y="730" type="line"/>
      <point x="861" y="730" type="line"/>
    </contour>
    <contour>
      <point x="296" y="-260" type="line"/>
      <point x="236" y="-169" type="line"/>
      <point x="236" y="-168" type="line"/>
      <point x="454" y="-168" type="line"/>
      <point x="454" y="-260" type="line"/>
    </contour>
    <contour>
      <point x="562" y="-204" type="line"/>
      <point x="455" y="-260" type="line"/>
      <point x="454" y="-260" type="line"/>
      <point x="454" y="-126" type="line"/>
      <point x="562" y="-126" type="line"/>
    </contour>
    <contour>
      <point x="492" y="-32" type="line"/>
      <point x="562" y="-125" type="line"/>
      <point x="562" y="-126" type="line"/>
      <point x="412" y="-126" type="line"/>
      <point x="458" y="-32" type="line"/>
    </contour>
    <contour>
      <point x="296" y="-126" type="line"/>
      <point x="296" y="-125" type="line"/>
      <point x="373" y="0" type="line"/>
      <point x="478" y="0" type="line"/>
      <point x="478" y="-1" type="line"/>
      <point x="412" y="-126" type="line"/>
    </contour>
  </outline>
</glyph>
<glyph name="tcedilla.color4" format="2">
  <advance width="600"/>
  <unicode hex="0163"/>
  <outline>
    <contour>
      <point x="199" y="-260" type="line"/>
      <point x="139" y="-169" type="line"/>
      <point x="139" y="-168" type="line"/>
      <point x="357" y="-168" type="line"/>
      <point x="357" y="-260" type="line"/>
    </contour>
  </outline>
</glyph>
<glyph name="tcedilla.color7" format="2">
  <advance width="600"/>
  <unicode hex="0163"/>
  <outline>
    <contour>
      <point x="199" y="-126" type="line"/>
      <point x="199" y="-125" type="line"/>
      <point x="276" y="0" type="line"/>
      <point x="381" y="0" type="line"/>
      <point x="381" y="-1" type="line"/>
      <point x="315" y="-126" type="line"/>
    </contour>
  </outline>
</glyph>
<glyph name="Tcaron.color0" format="2">
  <advance width="600"/>
  <unicode hex="0164"/>
  <outline>
    <contour>
      <point x="306" y="486" type="line"/>
      <point x="508" y="730" type="line"/>
      <point x="560" y="730" type="line"/>
      <point x="560" y="0" type="line"/>
      <point x="358" y="0" type="line"/>
      <point x="305" y="0" type="line"/>
    </contour>
  </outline>
</glyph>
<glyph name="Tcaron.color3" format="2">
  <advance width="600"/>
  <unicode hex="0164"/>
  <outline>
    <contour>
      <point x="204" y="900" type="line"/>
      <point x="361" y="900" type="line"/>
      <point x="495" y="793" type="line"/>
      <point x="403" y="760" type="line"/>
      <point x="362" y="760" type="line"/>
    </contour>
  </outline>
</glyph>
<glyph name="tcaron.color2" format="2">
  <advance width="600"/>
  <unicode hex="0165"/>
  <outline>
    <contour>
      <point x="549" y="0" type="line"/>
      <point x="249" y="0" type="line"/>
      <point x="249" y="204" type="line"/>
      <point x="572" y="204" type="line"/>
      <point x="572" y="203" type="line"/>
    </contour>
  </outline>
</glyph>
<glyph name="tbar" format="2">
  <advance width="610"/>
  <unicode hex="0167"/>
  <anchor x="339" y="0" name="bottom"/>
  <anchor x="152" y="794" name="top"/>
  <outline>
    <contour>
      <point x="521" y="273" type="line"/>
      <point x="0" y="273" type="line"/>
      <point x="0" y="297" type="line"/>
      <point x="521" y="297" type="line"/>
      <point x="521" y="296" type="line"/>
    </contour>
    <contour>
      <point x="252" y="530" type="line"/>
      <point x="496" y="530" type="line"/>
      <point x="496" y="326" type="line"/>
      <point x="39" y="326" type="line"/>
    </contour>
    <contour>
      <point x="38" y="107" type="line"/>
      <point x="38" y="326" type="line"/>
      <point x="252" y="326" type="line"/>
      <point x="252" y="0" type="line"/>
      <point x="251" y="0" type="line"/>
    </contour>
    <contour>
      <point x="552" y="0" type="line"/>
      <point x="252" y="0" type="line"/>
      <point x="252" y="204" type="line"/>
      <point x="575" y="204" type="line"/>
      <point x="575" y="203" type="line"/>
    </contour>
    <contour>
      <point x="252" y="530" type="line"/>
      <point x="39" y="326" type="line"/>
      <point x="38" y="326" type="line"/>
      <point x="38" y="703" type="line"/>
      <point x="252" y="703" type="line"/>
    </contour>
  </outline>
</glyph>
<glyph name="Utilde.color3" format="2">
  <advance width="600"/>
  <unicode hex="0168"/>
  <outline>
    <contour>
      <point x="238" y="772" type="line"/>
      <point x="238" y="853" type="line"/>
      <point x="378" y="864" type="line"/>
      <point x="378" y="772" type="line"/>
    </contour>
  </outline>
</glyph>
<glyph name="umacron.color3" format="2">
  <advance width="600"/>
  <unicode hex="016B"/>
  <outline>
    <contour>
      <point x="620" y="628" type="line"/>
      <point x="194" y="628" type="line"/>
      <point x="194" y="740" type="line"/>
      <point x="620" y="740" type="line"/>
    </contour>
  </outline>
</glyph>
<glyph name="ubreve" format="2">
  <advance width="807"/>
  <unicode hex="016D"/>
  <anchor x="422" y="0" name="bottom"/>
  <anchor x="772" y="530" name="horn"/>
  <anchor x="422" y="530" name="top"/>
  <outline>
    <contour>
      <point x="772" y="0" type="line"/>
      <point x="559" y="0" type="line"/>
      <point x="558" y="0" type="line"/>
      <point x="558" y="530" type="line"/>
      <point x="772" y="530" type="line"/>
    </contour>
    <contour>
      <point x="142" y="0" type="line"/>
      <point x="35" y="203" type="line"/>
      <point x="35" y="204" type="line"/>
      <point x="558" y="204" type="line"/>
      <point x="558" y="0" type="line"/>
    </contour>
    <contour>
      <point x="35" y="489" type="line"/>
      <point x="248" y="536" type="line"/>
      <point x="249" y="536" type="line"/>
      <point x="249" y="204" type="line"/>
      <point x="35" y="204" type="line"/>
    </contour>
    <contour>
      <point x="345" y="720" type="line"/>
      <point x="199" y="720" type="line"/>
      <point x="162" y="778" type="line"/>
      <point x="162" y="780" type="line"/>
      <point x="308" y="780" type="line"/>
    </contour>
    <contour>
      <point x="460" y="720" type="line"/>
      <point x="497" y="780" type="line"/>
      <point x="633" y="780" type="line"/>
      <point x="633" y="779" type="line"/>
      <point x="596" y="720" type="line"/>
    </contour>
    <contour>
      <point x="525" y="598" type="line"/>
      <point x="270" y="598" type="line"/>
      <point x="199" y="720" type="line"/>
      <point x="596" y="720" type="line"/>
    </contour>
  </outline>
</glyph>
<glyph name="Uring" format="2">
  <advance width="907"/>
  <unicode hex="016E"/>
  <anchor x="442" y="0" name="bottom"/>
  <anchor x="811" y="730" name="horn"/>
  <anchor x="476" y="730" name="top"/>
  <outline>
    <contour>
      <point x="882" y="207" type="line"/>
      <point x="629" y="0" type="line"/>
      <point x="628" y="0" type="line"/>
      <point x="628" y="730" type="line"/>
      <point x="882" y="730" type="line"/>
    </contour>
    <contour>
      <point x="237" y="0" type="line"/>
      <point x="35" y="243" type="line"/>
      <point x="35" y="244" type="line"/>
      <point x="628" y="244" type="line"/>
      <point x="628" y="0" type="line"/>
    </contour>
    <contour>
      <point x="35" y="730" type="line"/>
      <point x="289" y="730" type="line"/>
      <point x="289" y="244" type="line"/>
      <point x="288" y="244" type="line"/>
      <point x="35" y="244" type="line"/>
    </contour>
    <contour>
      <point x="308" y="886" type="line"/>
      <point x="404" y="948" type="line"/>
      <point x="404" y="948" type="line"/>
      <point x="404" y="812" type="line"/>
      <point x="308" y="812" type="line"/>
    </contour>
    <contour>
      <point x="574" y="948" type="line"/>
      <point x="634" y="864" type="line"/>
      <point x="634" y="864" type="line"/>
      <point x="404" y="864" type="line"/>
      <point x="404" y="948" type="line"/>
    </contour>
    <contour>
      <point x="634" y="786" type="line"/>
      <point x="538" y="730" type="line"/>
      <point x="538" y="730" type="line"/>
      <point x="538" y="864" type="line"/>
      <point x="634" y="864" type="line"/>
    </contour>
    <contour>
      <point x="368" y="730" type="line"/>
      <point x="308" y="812" type="line"/>
      <point x="308" y="812" type="line"/>
      <point x="538" y="812" type="line"/>
      <point x="538" y="730" type="line"/>
    </contour>
  </outline>
</glyph>
<glyph name="Uogonek" format="2">
  <advance width="907"/>
  <unicode hex="0172"/>
  <anchor x="442" y="0" name="bottom"/>
  <anchor x="811" y="730" name="horn"/>
  <anchor x="476" y="730" name="top"/>
  <outline>
    <contour>
      <point x="882" y="207" type="line"/>
      <point x="629" y="0" type="line"/>
      <point x="628" y="0" type="line"/>
      <point x="628" y="730" type="line"/>
      <point x="882" y="730" type="line"/>
    </contour>
    <contour>
      <point x="237" y="0" type="line"/>
      <point x="35" y="243" type="line"/>
      <point x="35" y="244" type="line"/>
      <point x="628" y="244" type="line"/>
      <point x="628" y="0" type="line"/>
    </contour>
    <contour>
      <point x="35" y="730" type="line"/>
      <point x="289" y="730" type="line"/>
      <point x="289" y="244" type="line"/>
      <point x="288" y="244" type="line"/>
      <point x="35" y="244" type="line"/>
    </contour>
    <contour>
      <point x="551" y="-230" type="line"/>
      <point x="433" y="-230" type="line"/>
      <point x="433" y="-138" type="line"/>
      <point x="611" y="-138" type="line"/>
      <point x="611" y="-139" type="line"/>
    </contour>
    <contour>
      <point x="305" y="-86" type="line"/>
      <point x="305" y="-85" type="line"/>
      <point x="382" y="0" type="line"/>
      <point x="507" y="0" type="line"/>
      <point x="507" y="-1" type="line"/>
      <point x="433" y="-86" type="line"/>
    </contour>
    <contour>
      <point x="305" y="-174" type="line"/>
      <point x="305" y="-86" type="line"/>
      <point x="433" y="-86" type="line"/>
      <point x="433" y="-230" type="line"/>
      <point x="432" y="-230" type="line"/>
    </contour>
  </outline>
</glyph>
<glyph name="uogonek.color0" format="2">
  <advance width="600"/>
  <unicode hex="0173"/>
  <outline>
    <contour>
      <point x="772" y="0" type="line"/>
      <point x="559" y="0" type="line"/>
      <point x="558" y="0" type="line"/>
      <point x="558" y="530" type="line"/>
      <point x="772" y="530" type="line"/>
    </contour>
  </outline>
</glyph>
<glyph name="Wcircumflex" format="2">
  <advance width="1328"/>
  <unicode hex="0174"/>
  <anchor x="673" y="730" name="top"/>
  <outline>
    <contour>
      <point x="0" y="730" type="line"/>
      <point x="284" y="730" type="line"/>
      <point x="447" y="192" type="line"/>
      <point x="249" y="0" type="line"/>
      <point x="238" y="0" type="line"/>
    </contour>
    <contour>
      <point x="801" y="729" type="line"/>
      <point x="523" y="0" type="line"/>
      <point x="249" y="0" type="line"/>
      <point x="527" y="730" type="line"/>
    </contour>
    <contour>
      <point x="527" y="730" type="line"/>
      <point x="801" y="730" type="line"/>
      <point x="974" y="192" type="line"/>
      <point x="776" y="0" type="line"/>
      <point x="775" y="0" type="line"/>
    </contour>
    <contour>
      <point x="1328" y="730" type="line"/>
      <point x="1060" y="0" type="line"/>
      <point x="776" y="0" type="line"/>
      <point x="1044" y="730" type="line"/>
    </contour>
    <contour>
      <point x="913" y="760" type="line"/>
      <point x="756" y="760" type="line"/>
      <point x="622" y="867" type="line"/>
      <point x="714" y="900" type="line"/>
      <point x="755" y="900" type="line"/>
      <point x="913" y="761" type="line"/>
    </contour>
    <contour>
      <point x="447" y="760" type="line"/>
      <point x="447" y="761" type="line"/>
      <point x="601" y="900" type="line"/>
      <point x="755" y="900" type="line"/>
      <point x="601" y="760" type="line"/>
    </contour>
  </outline>
</glyph>
<glyph name="ycircumflex.color5" format="2">
  <advance width="600"/>
  <unicode hex="0177"/>
  <outline>
    <contour>
      <point x="196" y="592" type="line"/>
      <point x="340" y="770" type="line"/>
      <point x="484" y="770" type="line"/>
      <point x="350" y="592" type="line"/>
    </contour>
  </outline>
</glyph>
<glyph name="Zacute.color3" format="2">
  <advance width="600"/>
  <unicode hex="0179"/>
  <outline>
    <contour>
      <point x="302" y="760" type="line"/>
      <point x="337" y="900" type="line"/>
      <point x="543" y="900" type="line"/>
      <point x="543" y="899" type="line"/>
      <point x="428" y="760" type="line"/>
    </contour>
  </outline>
</glyph>
<glyph name="zdotaccent.color2" format="2">
  <advance width="600"/>
  <unicode hex="017C"/>
  <outline>
    <contour>
      <point x="757" y="0" type="line"/>
      <point x="137" y="0" type="line"/>
      <point x="30" y="179" type="line"/>
      <point x="757" y="179" type="line"/>
      <point x="757" y="178" type="line"/>
    </contour>
  </outline>
</glyph>
<glyph name="Zcaron" format="2">
  <advance width="825"/>
  <unicode hex="017D"/>
  <anchor x="386" y="730" name="top"/>
  <outline>
    <contour>
      <point x="35" y="730" type="line"/>
      <point x="644" y="730" type="line"/>
      <point x="618" y="486" type="line"/>
      <point x="35" y="486" type="line"/>
      <point x="35" y="487" type="line"/>
    </contour>
    <contour>
      <point x="244" y="119" type="line"/>
      <point x="41" y="244" type="line"/>
      <point x="41" y="245" type="line"/>
      <point x="644" y="730" type="line"/>
      <point x="784" y="535" type="line"/>
    </contour>
    <contour>
      <point x="790" y="0" type="line"/>
      <point x="41" y="0" type="line"/>
      <point x="41" y="244" type="line"/>
      <point x="790" y="244" type="line"/>
      <point x="790" y="243" type="line"/>
    </contour>
    <contour>
      <point x="154" y="900" type="line"/>
      <point x="311" y="900" type="line"/>
      <point x="445" y="793" type="line"/>
      <point x="353" y="760" type="line"/>
      <point x="312" y="760" type="line"/>
    </contour>
    <contour>
      <point x="620" y="900" type="line"/>
      <point x="466" y="760" type="line"/>
      <point x="312" y="760" type="line"/>
      <point x="466" y="900" type="line"/>
    </contour>
  </outline>
</glyph>
<glyph name="Ohorn" format="2">
  <advance width="907"/>
  <unicode hex="01A0"/>
  <anchor x="452" y="0" name="bottom"/>
  <anchor x="680" y="730" name="horn"/>
  <anchor x="476" y="730" name="top"/>
  <outline>
    <contour>
      <point x="25" y="523" type="line"/>
      <point x="278" y="730" type="line"/>
      <point x="279" y="730" type="line"/>
      <point x="279" y="244" type="line"/>
      <point x="25" y="244" type="line"/>
    </contour>
    <contour>
      <point x="680" y="730" type="line"/>
      <point x="882" y="487" type="line"/>
      <point x="882" y="486" type="line"/>
      <point x="279" y="486" type="line"/>
      <point x="279" y="730" type="line"/>
    </contour>
    <contour>
      <point x="882" y="197" type="line"/>
      <point x="629" y="0" type="line"/>
      <point x="628" y="0" type="line"/>
      <point x="628" y="486" type="line"/>
      <point x="882" y="486" type="line"/>
    </contour>
    <contour>
      <point x="227" y="0" type="line"/>
      <point x="25" y="243" type="line"/>
      <point x="25" y="244" type="line"/>
      <point x="628" y="244" type="line"/>
      <point x="628" y="0" type="line"/>
    </contour>
    <contour>
      <point x="497" y="730" type="line"/>
      <point x="751" y="730" type="line"/>
      <point x="751" y="576" type="line"/>
      <point x="680" y="576" type="line"/>
      <point x="497" y="729" type="line"/>
    </contour>
    <contour>
      <point x="925" y="683" type="line"/>
      <point x="752" y="576" type="line"/>
      <point x="751" y="576" type="line"/>
      <point x="751" y="854" type="line"/>
      <point x="925" y="854" type="line"/>
    </contour>
  </outline>
</glyph>
<glyph name="Uhorn.color2" format="2">
  <advance width="600"/>
  <unicode hex="01AF"/>
  <outline>
    <contour>
      <point x="35" y="730" type="line"/>
      <point x="289" y="730" type="line"/>
      <point x="289" y="244" type="line"/>
      <point x="288" y="244" type="line"/>
      <point x="35" y="244" type="line"/>
    </contour>
  </outline>
</glyph>
<glyph name="Uhorn.color3" format="2">
  <advance width="600"/>
  <unicode hex="01AF"/>
  <outline>
    <contour>
      <point x="628" y="730" type="line"/>
      <point x="882" y="730" type="line"/>
      <point x="882" y="576" type="line"/>
      <point x="811" y="576" type="line"/>
      <point x="628" y="729" type="line"/>
    </contour>
  </outline>
</glyph>
<glyph name="Dzcaron.color4" format="2">
  <advance width="600"/>
  <unicode hex="01C5"/>
  <outline>
    <contour>
      <point x="1090" y="530" type="line"/>
      <point x="1620" y="530" type="line"/>
      <point x="1594" y="351" type="line"/>
      <point x="983" y="351" type="line"/>
      <point x="983" y="352" type="line"/>
    </contour>
  </outline>
</glyph>
<glyph name="Dzcaron.color6" format="2">
  <advance width="600"/>
  <unicode hex="01C5"/>
  <outline>
    <contour>
      <point x="1704" y="0" type="line"/>
      <point x="1084" y="0" type="line"/>
      <point x="977" y="179" type="line"/>
      <point x="1704" y="179" type="line"/>
      <point x="1704" y="178" type="line"/>
    </contour>
  </outline>
</glyph>
<glyph name="Dzcaron" format="2">
  <advance width="1740"/>
  <unicode hex="01C5"/>
  <anchor x="166" y="361" name="stroke"/>
  <anchor x="1364" y="530" name="top"/>
  <outline>
    <contour>
      <point x="35" y="730" type="line"/>
      <point x="288" y="730" type="line"/>
      <point x="289" y="730" type="line"/>
      <point x="289" y="240" type="line"/>
      <point x="35" y="240" type="line"/>
    </contour>
    <contour>
      <point x="720" y="730" type="line"/>
      <point x="922" y="487" type="line"/>
      <point x="922" y="486" type="line"/>
      <point x="289" y="486" type="line"/>
      <point x="289" y="730" type="line"/>
    </contour>
    <contour>
      <point x="922" y="193" type="line"/>
      <point x="669" y="-4" type="line"/>
      <point x="668" y="-4" type="line"/>
      <point x="668" y="486" type="line"/>
      <point x="922" y="486" type="line"/>
    </contour>
    <contour>
      <point x="35" y="-4" type="line"/>
      <point x="35" y="239" type="line"/>
      <point x="35" y="240" type="line"/>
      <point x="668" y="240" type="line"/>
      <point x="668" y="-4" type="line"/>
    </contour>
    <contour>
      <point x="1090" y="530" type="line"/>
      <point x="1620" y="530" type="line"/>
      <point x="1594" y="351" type="line"/>
      <point x="983" y="351" type="line"/>
      <point x="983" y="352" type="line"/>
    </contour>
    <contour>
      <point x="1220" y="149" type="line"/>
      <point x="977" y="179" type="line"/>
      <point x="977" y="180" type="line"/>
      <point x="1620" y="530" type="line"/>
      <point x="1710" y="365" type="line"/>
    </contour>
    <contour>
      <point x="1704" y="0" type="line"/>
      <point x="1084" y="0" type="line"/>
      <point x="977" y="179" type="line"/>
      <point x="1704" y="179" type="line"/>
      <point x="1704" y="178" type="line"/>
    </contour>
    <contour>
      <point x="1135" y="750" type="line"/>
      <point x="1292" y="750" type="line"/>
      <point x="1396" y="613" type="line"/>
      <point x="1314" y="582" type="line"/>
      <point x="1273" y="582" type="line"/>
    </contour>
    <contour>
      <point x="1561" y="750" type="line"/>
      <point x="1417" y="582" type="line"/>
      <point x="1273" y="582" type="line"/>
      <point x="1407" y="750" type="line"/>
    </contour>
  </outline>
</glyph>
<glyph name="dzcaron.color7" format="2">
  <advance width="600"/>
  <unicode hex="01C6"/>
  <outline>
    <contour>
      <point x="1565" y="0" type="line"/>
      <point x="945" y="0" type="line"/>
      <point x="838" y="179" type="line"/>
      <point x="1565" y="179" type="line"/>
      <point x="1565" y="178" type="line"/>
    </contour>
  </outline>
</glyph>
<glyph name="dzcaron.color8" format="2">
  <advance width="600"/>
  <unicode hex="01C6"/>
  <outline>
    <contour>
      <point x="996" y="750" type="line"/>
      <point x="1153" y="750" type="line"/>
      <point x="1257" y="613" type="line"/>
      <point x="1175" y="582" type="line"/>
      <point x="1134" y="582" type="line"/>
    </contour>
  </outline>
</glyph>
<glyph name="dzcaron.color9" format="2">
  <advance width="600"/>
  <unicode hex="01C6"/>
  <outline>
    <contour>
      <point x="1422" y="750" type="line"/>
      <point x="1278" y="582" type="line"/>
      <point x="1134" y="582" type="line"/>
      <point x="1268" y="750" type="line"/>
    </contour>
  </outline>
</glyph>
<glyph name="dzcaron" format="2">
  <advance width="1621"/>
  <unicode hex="01C6"/>
  <anchor x="534" y="656" name="stroke"/>
  <anchor x="1225" y="530" name="top"/>
  <outline>
    <contour>
      <point x="45" y="423" type="line"/>
      <point x="258" y="530" type="line"/>
      <point x="259" y="530" type="line"/>
      <point x="259" y="204" type="line"/>
      <point x="45" y="204" type="line"/>
    </contour>
    <contour>
      <point x="621" y="530" type="line"/>
      <point x="783" y="327" type="line"/>
      <point x="783" y="326" type="line"/>
      <point x="259" y="326" type="line"/>
      <point x="259" y="530" type="line"/>
    </contour>
    <contour>
      <point x="783" y="107" type="line"/>
      <point x="570" y="0" type="line"/>
      <point x="569" y="0" type="line"/>
      <point x="569" y="326" type="line"/>
      <point x="783" y="326" type="line"/>
    </contour>
    <contour>
      <point x="147" y="0" type="line"/>
      <point x="45" y="203" type="line"/>
      <point x="45" y="204" type="line"/>
      <point x="569" y="204" type="line"/>
      <point x="569" y="0" type="line"/>
    </contour>
    <contour>
      <point x="569" y="530" type="line"/>
      <point x="569" y="794" type="line"/>
      <point x="783" y="794" type="line"/>
      <point x="783" y="329" type="line"/>
      <point x="782" y="329" type="line"/>
    </contour>
    <contour>
      <point x="951" y="530" type="line"/>
      <point x="1481" y="530" type="line"/>
      <point x="1455" y="351" type="line"/>
      <point x="844" y="351" type="line"/>
      <point x="844" y="352" type="line"/>
    </contour>
    <contour>
      <point x="1081" y="149" type="line"/>
      <point x="838" y="179" type="line"/>
      <point x="838" y="180" type="line"/>
      <point x="1481" y="530" type="line"/>
      <point x="1571" y="365" type="line"/>
    </contour>
    <contour>
      <point x="1565" y="0" type="line"/>
      <point x="945" y="0" type="line"/>
      <point x="838" y="179" type="line"/>
      <point x="1565" y="179" type="line"/>
      <point x="1565" y="178" type="line"/>
    </contour>
    <contour>
      <point x="996" y="750" type="line"/>
      <point x="1153" y="750" type="line"/>
      <point x="1257" y="613" type="line"/>
      <point x="1175" y="582" type="line"/>
      <point x="1134" y="582" type="line"/>
    </contour>
    <contour>
      <point x="1422" y="750" type="line"/>
      <point x="1278" y="582" type="line"/>
      <point x="1134" y="582" type="line"/>
      <point x="1268" y="750" type="line"/>
    </contour>
  </outline>
</glyph>
<glyph name="Lj" format="2">
  <advance width="1094"/>
  <unicode hex="01C8"/>
  <anchor x="445" y="0" name="bottom"/>
  <anchor x="173" y="730" name="top"/>
  <outline>
    <contour>
      <point x="35" y="730" type="line"/>
      <point x="288" y="730" type="line"/>
      <point x="289" y="730" type="line"/>
      <point x="289" y="240" type="line"/>
      <point x="35" y="240" type="line"/>
    </contour>
    <contour>
      <point x="237" y="-4" type="line"/>
      <point x="35" y="239" type="line"/>
      <point x="35" y="240" type="line"/>
      <point x="768" y="240" type="line"/>
      <point x="768" y="-4" type="line"/>
    </contour>
    <contour>
      <point x="855" y="393" type="line"/>
      <point x="1048" y="500" type="line"/>
      <point x="1049" y="503" type="line"/>
      <point x="1049" y="-99" type="line"/>
      <point x="856" y="-206" type="line"/>
      <point x="855" y="-206" type="line"/>
    </contour>
    <contour>
      <point x="1049" y="576" type="line"/>
      <point x="856" y="469" type="line"/>
      <point x="855" y="469" type="line"/>
      <point x="855" y="682" type="line"/>
      <point x="1049" y="682" type="line"/>
    </contour>
    <contour>
      <point x="855" y="-206" type="line"/>
      <point x="643" y="-206" type="line"/>
      <point x="643" y="-26" type="line"/>
      <point x="855" y="-26" type="line"/>
      <point x="855" y="-27" type="line"/>
    </contour>
  </outline>
</glyph>
<glyph name="lj.color2" format="2">
  <advance width="600"/>
  <unicode hex="01C9"/>
  <outline>
    <contour>
      <point x="548" y="393" type="line"/>
      <point x="741" y="500" type="line"/>
      <point x="742" y="503" type="line"/>
      <point x="742" y="-99" type="line"/>
      <point x="549" y="-206" type="line"/>
      <point x="548" y="-206" type="line"/>
    </contour>
  </outline>
</glyph>
<glyph name="lj" format="2">
  <advance width="787"/>
  <unicode hex="01C9"/>
  <anchor x="259" y="0" name="bottom"/>
  <anchor x="149" y="794" name="top"/>
  <outline>
    <contour>
      <point x="35" y="794" type="line"/>
      <point x="249" y="794" type="line"/>
      <point x="249" y="0" type="line"/>
      <point x="248" y="0" type="line"/>
      <point x="35" y="107" type="line"/>
    </contour>
    <contour>
      <point x="461" y="0" type="line"/>
      <point x="249" y="0" type="line"/>
      <point x="249" y="204" type="line"/>
      <point x="461" y="204" type="line"/>
      <point x="461" y="203" type="line"/>
    </contour>
    <contour>
      <point x="548" y="393" type="line"/>
      <point x="741" y="500" type="line"/>
      <point x="742" y="503" type="line"/>
      <point x="742" y="-99" type="line"/>
      <point x="549" y="-206" type="line"/>
      <point x="548" y="-206" type="line"/>
    </contour>
    <contour>
      <point x="742" y="576" type="line"/>
      <point x="549" y="469" type="line"/>
      <point x="548" y="469" type="line"/>
      <point x="548" y="682" type="line"/>
      <point x="742" y="682" type="line"/>
    </contour>
    <contour>
      <point x="548" y="-206" type="line"/>
      <point x="336" y="-206" type="line"/>
      <point x="336" y="-26" type="line"/>
      <point x="548" y="-26" type="line"/>
      <point x="548" y="-27" type="line"/>
    </contour>
  </outline>
</glyph>
<glyph name="NJ.color6" format="2">
  <advance width="600"/>
  <unicode hex="01CA"/>
  <outline>
    <contour>
      <point x="944" y="240" type="line"/>
      <point x="1397" y="240" type="line"/>
      <point x="1397" y="239" type="line"/>
      <point x="1195" y="-4" type="line"/>
      <point x="944" y="-4" type="line"/>
    </contour>
  </outline>
</glyph>
<glyph name="Nj.color4" format="2">
  <advance width="600"/>
  <unicode hex="01CB"/>
  <outline>
    <contour>
      <point x="1153" y="576" type="line"/>
      <point x="960" y="469" type="line"/>
      <point x="959" y="469" type="line"/>
      <point x="959" y="682" type="line"/>
      <point x="1153" y="682" type="line"/>
    </contour>
  </outline>
</glyph>
<glyph name="nj.color3" format="2">
  <advance width="600"/>
  <unicode hex="01CC"/>
  <outline>
    <contour>
      <point x="869" y="393" type="line"/>
      <point x="1062" y="500" type="line"/>
      <point x="1063" y="503" type="line"/>
      <point x="1063" y="-99" type="line"/>
      <point x="870" y="-206" type="line"/>
      <point x="869" y="-206" type="line"/>
    </contour>
  </outline>
</glyph>
<glyph name="nj.color4" format="2">
  <advance width="600"/>
  <unicode hex="01CC"/>
  <outline>
    <contour>
      <point x="1063" y="576" type="line"/>
      <point x="870" y="469" type="line"/>
      <point x="869" y="469" type="line"/>
      <point x="869" y="682" type="line"/>
      <point x="1063" y="682" type="line"/>
    </contour>
  </outline>
</glyph>
<glyph name="Gcaron.color5" format="2">
  <advance width="600"/>
  <unicode hex="01E6"/>
  <outline>
    <contour>
      <point x="301" y="900" type="line"/>
      <point x="458" y="900" type="line"/>
      <point x="592" y="793" type="line"/>
      <point x="500" y="760" type="line"/>
      <point x="459" y="760" type="line"/>
    </contour>
  </outline>
</glyph>
<glyph name="oogonek.color6" format="2">
  <advance width="600"/>
  <unicode hex="01EB"/>
  <outline>
    <contour>
      <point x="285" y="-174" type="line"/>
      <point x="285" y="-86" type="line"/>
      <point x="413" y="-86" type="line"/>
      <point x="413" y="-230" type="line"/>
      <point x="412" y="-230" type="line"/>
    </contour>
  </outline>
</glyph>
<glyph name="Aringacute.color6" format="2">
  <advance width="600"/>
  <unicode hex="01FA"/>
  <outline>
    <contour>
      <point x="620" y="807" type="line"/>
      <point x="540" y="751" type="line"/>
      <point x="539" y="751" type="line"/>
      <point x="539" y="845" type="line"/>
      <point x="620" y="845" type="line"/>
    </contour>
  </outline>
</glyph>
<glyph name="aringacute.color6" format="2">
  <advance width="600"/>
  <unicode hex="01FB"/>
  <outline>
    <contour>
      <point x="610" y="628" type="line"/>
      <point x="515" y="572" type="line"/>
      <point x="514" y="572" type="line"/>
      <point x="514" y="676" type="line"/>
      <point x="610" y="676" type="line"/>
    </contour>
  </outline>
</glyph>
<glyph name="AEacute.color7" format="2">
  <advance width="600"/>
  <unicode hex="01FC"/>
  <outline>
    <contour>
      <point x="392" y="760" type="line"/>
      <point x="427" y="900" type="line"/>
      <point x="633" y="900" type="line"/>
      <point x="633" y="899" type="line"/>
      <point x="518" y="760" type="line"/>
    </contour>
  </outline>
</glyph>
<glyph name="aeacute.color0" format="2">
  <advance width="600"/>
  <unicode hex="01FD"/>
  <outline>
    <contour>
      <point x="132" y="0" type="line"/>
      <point x="25" y="203" type="line"/>
      <point x="25" y="204" type="line"/>
      <point x="578" y="204" type="line"/>
      <point x="792" y="0" type="line"/>
    </contour>
  </outline>
</glyph>
<glyph name="aeacute.color4" format="2">
  <advance width="600"/>
  <unicode hex="01FD"/>
  <outline>
    <contour>
      <point x="1345" y="328" type="line"/>
      <point x="1132" y="221" type="line"/>
      <point x="1131" y="221" type="line"/>
      <point x="1131" y="351" type="line"/>
      <point x="1345" y="351" type="line"/>
    </contour>
  </outline>
</glyph>
<glyph name="oslashacute" format="2">
  <advance width="949"/>
  <unicode hex="01FF"/>
  <anchor x="468" y="0" name="bottom"/>
  <anchor x="711" y="530" name="horn"/>
  <anchor x="488" y="530" name="top"/>
  <outline>
    <contour>
      <point x="148" y="0" type="line"/>
      <point x="35" y="0" type="line"/>
      <point x="35" y="2" type="line"/>
      <point x="801" y="530" type="line"/>
      <point x="914" y="530" type="line"/>
      <point x="914" y="529" type="line"/>
    </contour>
    <contour>
      <point x="71" y="423" type="line"/>
      <point x="284" y="530" type="line"/>
      <point x="285" y="530" type="line"/>
      <point x="285" y="204" type="line"/>
      <point x="71" y="204" type="line"/>
    </contour>
    <contour>
      <point x="751" y="530" type="line"/>
      <point x="858" y="327" type="line"/>
      <point x="858" y="326" type="line"/>
      <point x="285" y="326" type="line"/>
      <point x="285" y="530" type="line"/>
    </contour>
    <contour>
      <point x="858" y="107" type="line"/>
      <point x="645" y="0" type="line"/>
      <point x="644" y="0" type="line"/>
      <point x="644" y="326" type="line"/>
      <point x="858" y="326" type="line"/>
    </contour>
    <contour>
      <point x="178" y="0" type="line"/>
      <point x="71" y="203" type="line"/>
      <point x="71" y="204" type="line"/>
      <point x="644" y="204" type="line"/>
      <point x="644" y="0" type="line"/>
    </contour>
    <contour>
      <point x="415" y="590" type="line"/>
      <point x="450" y="820" type="line"/>
      <point x="626" y="820" type="line"/>
      <point x="626" y="819" type="line"/>
      <point x="521" y="590" type="line"/>
    </contour>
  </outline>
</glyph>
<glyph name="Ainvertedbreve.color4" format="2">
  <advance width="600"/>
  <unicode hex="0202"/>
  <outline>
    <contour>
      <point x="449" y="820" type="line"/>
      <point x="392" y="760" type="line"/>
      <point x="236" y="760" type="line"/>
      <point x="236" y="762" type="line"/>
      <point x="290" y="820" type="line"/>
    </contour>
  </outline>
</glyph>
<glyph name="Ainvertedbreve.color5" format="2">
  <advance width="600"/>
  <unicode hex="0202"/>
  <outline>
    <contour>
      <point x="524" y="820" type="line"/>
      <point x="683" y="820" type="line"/>
      <point x="737" y="761" type="line"/>
      <point x="737" y="760" type="line"/>
      <point x="581" y="760" type="line"/>
    </contour>
  </outline>
</glyph>
<glyph name="ainvertedbreve.color6" format="2">
  <advance width="600"/>
  <unicode hex="0203"/>
  <outline>
    <contour>
      <point x="535" y="800" type="line"/>
      <point x="596" y="698" type="line"/>
      <point x="269" y="698" type="line"/>
      <point x="330" y="800" type="line"/>
    </contour>
  </outline>
</glyph>
<glyph name="Einvertedbreve" format="2">
  <advance width="832"/>
  <unicode hex="0206"/>
  <anchor x="442" y="0" name="bottom"/>
  <anchor x="456" y="730" name="top"/>
  <outline>
    <contour>
      <point x="35" y="730" type="line"/>
      <point x="289" y="730" type="line"/>
      <point x="289" y="244" type="line"/>
      <point x="35" y="244" type="line"/>
    </contour>
    <contour>
      <point x="650" y="486" type="line"/>
      <point x="289" y="486" type="line"/>
      <point x="289" y="730" type="line"/>
      <point x="852" y="730" type="line"/>
      <point x="852" y="729" type="line"/>
    </contour>
    <contour>
      <point x="698" y="263" type="line"/>
      <point x="289" y="263" type="line"/>
      <point x="289" y="467" type="line"/>
      <point x="698" y="467" type="line"/>
    </contour>
    <contour>
      <point x="801" y="0" type="line"/>
      <point x="237" y="0" type="line"/>
      <point x="35" y="243" type="line"/>
      <point x="35" y="244" type="line"/>
      <point x="801" y="244" type="line"/>
    </contour>
    <contour>
      <point x="419" y="820" type="line"/>
      <point x="362" y="760" type="line"/>
      <point x="206" y="760" type="line"/>
      <point x="206" y="762" type="line"/>
      <point x="260" y="820" type="line"/>
    </contour>
    <contour>
      <point x="494" y="820" type="line"/>
      <point x="653" y="820" type="line"/>
      <point x="707" y="761" type="line"/>
      <point x="707" y="760" type="line"/>
      <point x="551" y="760" type="line"/>
    </contour>
    <contour>
      <point x="579" y="900" type="line"/>
      <point x="653" y="820" type="line"/>
      <point x="260" y="820" type="line"/>
      <point x="334" y="900" type="line"/>
    </contour>
  </outline>
</glyph>
<glyph name="einvertedbreve" format="2">
  <advance width="837"/>
  <unicode hex="0207"/>
  <anchor x="431" y="0" name="bottom"/>
  <anchor x="442" y="530" name="top"/>
  <outline>
    <contour>
      <point x="45" y="423" type="line"/>
      <point x="258" y="530" type="line"/>
      <point x="259" y="530" type="line"/>
      <point x="259" y="200" type="line"/>
      <point x="45" y="200" type="line"/>
    </contour>
    <contour>
      <point x="705" y="530" type="line"/>
      <point x="812" y="352" type="line"/>
      <point x="812" y="351" type="line"/>
      <point x="259" y="351" type="line"/>
      <point x="259" y="530" type="line"/>
    </contour>
    <contour>
      <point x="152" y="0" type="line"/>
      <point x="45" y="199" type="line"/>
      <point x="45" y="200" type="line"/>
      <point x="812" y="200" type="line"/>
      <point x="812" y="199" type="line"/>
      <point x="705" y="0" type="line"/>
    </contour>
    <contour>
      <point x="598" y="331" type="line"/>
      <point x="598" y="221" type="line"/>
      <point x="259" y="220" type="line"/>
      <point x="259" y="331" type="line"/>
    </contour>
    <contour>
      <point x="812" y="328" type="line"/>
      <point x="599" y="221" type="line"/>
      <point x="598" y="221" type="line"/>
      <point x="598" y="351" type="line"/>
      <point x="812" y="351" type="line"/>
    </contour>
    <contour>
      <point x="470" y="698" type="line"/>
      <point x="586" y="698" type="line"/>
      <point x="633" y="619" type="line"/>
      <point x="633" y="618" type="line"/>
      <point x="517" y="618" type="line"/>
    </contour>
    <contour>
      <point x="385" y="698" type="line"/>
      <point x="338" y="618" type="line"/>
      <point x="212" y="618" type="line"/>
      <point x="212" y="620" type="line"/>
      <point x="259" y="698" type="line"/>
    </contour>
    <contour>
      <point x="525" y="800" type="line"/>
      <point x="586" y="698" type="line"/>
      <point x="259" y="698" type="line"/>
      <point x="320" y="800" type="line"/>
    </contour>
  </outline>
</glyph>
<glyph name="idblgrave" format="2">
  <advance width="304"/>
  <unicode hex="0209"/>
  <anchor x="151" y="0" name="bottom"/>
  <anchor x="159" y="530" name="top"/>
  <outline>
    <contour>
      <point x="55" y="530" type="line"/>
      <point x="248" y="530" type="line"/>
      <point x="249" y="503" type="line"/>
      <point x="249" y="0" type="line"/>
      <point x="55" y="0" type="line"/>
    </contour>
    <contour>
      <point x="297" y="590" type="line"/>
      <point x="196" y="590" type="line"/>
      <point x="91" y="819" type="line"/>
      <point x="91" y="820" type="line"/>
      <point x="252" y="820" type="line"/>
    </contour>
    <contour>
      <point x="127" y="590" type="line"/>
      <point x="26" y="590" type="line"/>
      <point x="-79" y="819" type="line"/>
      <point x="-79" y="820" type="line"/>
      <point x="82" y="820" type="line"/>
    </contour>
  </outline>
</glyph>
<glyph name="Iinvertedbreve.color6" format="2">
  <advance width="600"/>
  <unicode hex="020A"/>
  <outline>
    <contour>
      <point x="409" y="820" type="line"/>
      <point x="568" y="820" type="line"/>
      <point x="622" y="761" type="line"/>
      <point x="622" y="760" type="line"/>
      <point x="466" y="760" type="line"/>
    </contour>
  </outline>
</glyph>
<glyph name="iinvertedbreve" format="2">
  <advance width="367"/>
  <unicode hex="020B"/>
  <anchor x="182" y="0" name="bottom"/>
  <anchor x="190" y="530" name="top"/>
  <outline>
    <contour>
      <point x="86" y="530" type="line"/>
      <point x="279" y="530" type="line"/>
      <point x="280" y="503" type="line"/>
      <point x="280" y="0" type="line"/>
      <point x="86" y="0" type="line"/>
    </contour>
    <contour>
      <point x="161" y="678" type="line"/>
      <point x="114" y="598" type="line"/>
      <point x="-22" y="598" type="line"/>
      <point x="-22" y="600" type="line"/>
      <point x="25" y="678" type="line"/>
    </contour>
    <contour>
      <point x="216" y="678" type="line"/>
      <point x="342" y="678" type="line"/>
      <point x="389" y="599" type="line"/>
      <point x="389" y="598" type="line"/>
      <point x="263" y="598" type="line"/>
    </contour>
    <contour>
      <point x="281" y="780" type="line"/>
      <point x="342" y="678" type="line"/>
      <point x="25" y="678" type="line"/>
      <point x="86" y="780" type="line"/>
    </contour>
  </outline>
</glyph>
<glyph name="Rdblgrave.color5" format="2">
  <advance width="600"/>
  <unicode hex="0210"/>
  <outline>
    <contour>
      <point x="604" y="760" type="line"/>
      <point x="478" y="760" type="line"/>
      <point x="363" y="899" type="line"/>
      <point x="363" y="900" type="line"/>
      <point x="569" y="900" type="line"/>
    </contour>
  </outline>
</glyph>
<glyph name="Rinvertedbreve.color0" format="2">
  <advance width="600"/>
  <unicode hex="0212"/>
  <outline>
    <contour>
      <point x="901" y="0" type="line"/>
      <point x="590" y="0" type="line"/>
      <point x="499" y="173" type="line"/>
      <point x="699" y="329" type="line"/>
    </contour>
  </outline>
</glyph>
<glyph name="Rinvertedbreve.color1" format="2">
  <advance width="600"/>
  <unicode hex="0212"/>
  <outline>
    <contour>
      <point x="35" y="730" type="line"/>
      <point x="288" y="730" type="line"/>
      <point x="289" y="730" type="line"/>
      <point x="289" y="0" type="line"/>
      <point x="35" y="0" type="line"/>
    </contour>
  </outline>
</glyph>
<glyph name="Rinvertedbreve.color5" format="2">
  <advance width="600"/>
  <unicode hex="0212"/>
  <outline>
    <contour>
      <point x="379" y="820" type="line"/>
      <point x="322" y="760" type="line"/>
      <point x="166" y="760" type="line"/>
      <point x="166" y="762" type="line"/>
      <point x="220" y="820" type="line"/>
    </contour>
  </outline>
</glyph>
<glyph name="rinvertedbreve.color3" format="2">
  <advance width="600"/>
  <unicode hex="0213"/>
  <outline>
    <contour>
      <point x="285" y="698" type="line"/>
      <point x="238" y="618" type="line"/>
      <point x="112" y="618" type="line"/>
      <point x="112" y="620" type="line"/>
      <point x="159" y="698" type="line"/>
    </contour>
  </outline>
</glyph>
<glyph name="uinvertedbreve.color3" format="2">
  <advance width="600"/>
  <unicode hex="0217"/>
  <outline>
    <contour>
      <point x="450" y="698" type="line"/>
      <point x="566" y="698" type="line"/>
      <point x="613" y="619" type="line"/>
      <point x="613" y="618" type="line"/>
      <point x="497" y="618" type="line"/>
    </contour>
  </outline>
</glyph>
<glyph name="tcommaaccent" format="2">
  <advance width="572"/>
  <unicode hex="021B"/>
  <anchor x="336" y="0" name="bottom"/>
  <anchor x="149" y="794" name="top"/>
  <outline>
    <contour>
      <point x="249" y="530" type="line"/>
      <point x="493" y="530" type="line"/>
      <point x="493" y="326" type="line"/>
      <point x="36" y="326" type="line"/>
    </contour>
    <contour>
      <point x="35" y="107" type="line"/>
      <point x="35" y="326" type="line"/>
      <point x="249" y="326" type="line"/>
      <point x="249" y="0" type="line"/>
      <point x="248" y="0" type="line"/>
    </contour>
    <contour>
      <point x="549" y="0" type="line"/>
      <point x="249" y="0" type="line"/>
      <point x="249" y="204" type="line"/>
      <point x="572" y="204" type="line"/>
      <point x="572" y="203" type="line"/>
    </contour>
    <contour>
      <point x="249" y="530" type="line"/>
      <point x="36" y="326" type="line"/>
      <point x="35" y="326" type="line"/>
      <point x="35" y="703" type="line"/>
      <point x="249" y="703" type="line"/>
    </contour>
    <contour>
      <point x="402" y="-158" type="line"/>
      <point x="271" y="-260" type="line"/>
      <point x="270" y="-260" type="line"/>
      <point x="270" y="-50" type="line"/>
      <point x="402" y="-50" type="line"/>
    </contour>
  </outline>
</glyph>
<glyph name="jdotless.color0" format="2">
  <advance width="600"/>
  <unicode hex="0237"/>
  <outline>
    <contour>
      <point x="62" y="530" type="line"/>
      <point x="255" y="530" type="line"/>
      <point x="256" y="530" type="line"/>
      <point x="256" y="-93" type="line"/>
      <point x="63" y="-200" type="line"/>
      <point x="62" y="-200" type="line"/>
    </contour>
  </outline>
</glyph>
<glyph name="gravecomb" format="2">
  <unicode hex="0300"/>
  <anchor x="340" y="530" name="_top"/>
  <outline>
    <contour>
      <point x="397" y="590" type="line"/>
      <point x="291" y="590" type="line"/>
      <point x="186" y="819" type="line"/>
      <point x="186" y="820" type="line"/>
      <point x="362" y="820" type="line"/>
    </contour>
  </outline>
</glyph>
<glyph name="dieresiscomb.color1" format="2">
  <unicode hex="0308"/>
  <outline>
    <contour>
      <point x="506" y="640" type="line"/>
      <point x="330" y="640" type="line"/>
      <point x="330" y="772" type="line"/>
      <point x="506" y="772" type="line"/>
    </contour>
  </outline>
</glyph>
<glyph name="hookabovecomb" format="2">
  <unicode hex="0309"/>
  <anchor x="309" y="530" name="_top"/>
  <outline>
    <contour>
      <point x="497" y="736" type="line"/>
      <point x="169" y="736" type="line"/>
      <point x="169" y="850" type="line"/>
      <point x="410" y="850" type="line"/>
      <point x="497" y="737" type="line"/>
    </contour>
    <contour>
      <point x="376" y="586" type="line"/>
      <point x="259" y="586" type="line"/>
      <point x="258" y="586" type="line"/>
      <point x="410" y="850" type="line"/>
      <point x="497" y="737" type="line"/>
      <point x="497" y="736" type="line"/>
    </contour>
  </outline>
</glyph>
<glyph name="caroncomb.color1" format="2">
  <unicode hex="030C"/>
  <outline>
    <contour>
      <point x="499" y="750" type="line"/>
      <point x="355" y="582" type="line"/>
      <point x="211" y="582" type="line"/>
      <point x="345" y="750" type="line"/>
    </contour>
  </outline>
</glyph>
<glyph name="breveinvertedcomb.color1" format="2">
  <unicode hex="0311"/>
  <outline>
    <contour>
      <point x="252" y="698" type="line"/>
      <point x="205" y="618" type="line"/>
      <point x="79" y="618" type="line"/>
      <point x="79" y="620" type="line"/>
      <point x="126" y="698" type="line"/>
    </contour>
  </outline>
</glyph>
<glyph name="horncomb" format="2">
  <unicode hex="031B"/>
  <anchor x="250" y="530" name="_horn"/>
  <outline>
    <contour>
      <point x="36" y="530" type="line"/>
      <point x="291" y="530" type="line"/>
      <point x="291" y="376" type="line"/>
      <point x="250" y="376" type="line"/>
    </contour>
    <contour>
      <point x="465" y="483" type="line"/>
      <point x="292" y="376" type="line"/>
      <point x="291" y="376" type="line"/>
      <point x="291" y="654" type="line"/>
      <point x="465" y="654" type="line"/>
    </contour>
  </outline>
</glyph>
<glyph name="cedillacomb.color0" format="2">
  <unicode hex="0327"/>
  <outline>
    <contour>
      <point x="192" y="-260" type="line"/>
      <point x="132" y="-169" type="line"/>
      <point x="132" y="-168" type="line"/>
      <point x="350" y="-168" type="line"/>
      <point x="350" y="-260" type="line"/>
    </contour>
  </outline>
</glyph>
<glyph name="Wacute.color1" format="2">
  <advance width="600"/>
  <unicode hex="1E82"/>
  <outline>
    <contour>
      <point x="801" y="729" type="line"/>
      <point x="523" y="0" type="line"/>
      <point x="249" y="0" type="line"/>
      <point x="527" y="730" type="line"/>
    </contour>
  </outline>
</glyph>
<glyph name="Wdieresis.color0" format="2">
  <advance width="600"/>
  <unicode hex="1E84"/>
  <outline>
    <contour>
      <point x="0" y="730" type="line"/>
      <point x="284" y="730" type="line"/>
      <point x="447" y="192" type="line"/>
      <point x="249" y="0" type="line"/>
      <point x="238" y="0" type="line"/>
    </contour>
  </outline>
</glyph>
<glyph name="wdieresis.color4" format="2">
  <advance width="600"/>
  <unicode hex="1E85"/>
  <outline>
    <contour>
      <point x="555" y="640" type="line"/>
      <point x="379" y="640" type="line"/>
      <point x="379" y="772" type="line"/>
      <point x="555" y="772" type="line"/>
    </contour>
  </outline>
</glyph>
<glyph name="Germandbls.color4" format="2">
  <advance width="600"/>
  <unicode hex="1E9E"/>
  <outline>
    <contour>
      <point x="728" y="0" type="line"/>
      <point x="495" y="0" type="line"/>
      <point x="495" y="1" type="line"/>
      <point x="635" y="244" type="line"/>
      <point x="728" y="244" type="line"/>
    </contour>
  </outline>
</glyph>
<glyph name="Ahookabove.color5" format="2">
  <advance width="600"/>
  <unicode hex="1EA2"/>
  <outline>
    <contour>
      <point x="523" y="760" type="line"/>
      <point x="406" y="760" type="line"/>
      <point x="405" y="760" type="line"/>
      <point x="557" y="940" type="line"/>
      <point x="664" y="839" type="line"/>
      <point x="664" y="838" type="line"/>
    </contour>
  </outline>
</glyph>
<glyph name="Acircumflexgrave.color5" format="2">
  <advance width="600"/>
  <unicode hex="1EA6"/>
  <outline>
    <contour>
      <point x="250" y="755" type="line"/>
      <point x="250" y="756" type="line"/>
      <point x="384" y="883" type="line"/>
      <point x="548" y="883" type="line"/>
      <point x="404" y="755" type="line"/>
    </contour>
  </outline>
</glyph>
<glyph name="Acircumflexgrave.color6" format="2">
  <advance width="600"/>
  <unicode hex="1EA6"/>
  <outline>
    <contour>
      <point x="768" y="808" type="line"/>
      <point x="652" y="808" type="line"/>
      <point x="559" y="950" type="line"/>
      <point x="725" y="950" type="line"/>
      <point x="725" y="949" type="line"/>
    </contour>
  </outline>
</glyph>
<glyph name="acircumflexgrave.color4" format="2">
  <advance width="600"/>
  <unicode hex="1EA7"/>
  <outline>
    <contour>
      <point x="512" y="740" type="line"/>
      <point x="416" y="740" type="line"/>
      <point x="291" y="899" type="line"/>
      <point x="291" y="900" type="line"/>
      <point x="457" y="900" type="line"/>
    </contour>
  </outline>
</glyph>
<glyph name="Acircumflexhookabove.color4" format="2">
  <advance width="600"/>
  <unicode hex="1EA8"/>
  <outline>
    <contour>
      <point x="692" y="755" type="line"/>
      <point x="538" y="755" type="line"/>
      <point x="424" y="838" type="line"/>
      <point x="484" y="854" type="line"/>
      <point x="553" y="873" type="line"/>
      <point x="692" y="756" type="line"/>
    </contour>
  </outline>
</glyph>
<glyph name="acircumflexhookabove.color5" format="2">
  <advance width="600"/>
  <unicode hex="1EA9"/>
  <outline>
    <contour>
      <point x="186" y="578" type="line"/>
      <point x="186" y="579" type="line"/>
      <point x="350" y="706" type="line"/>
      <point x="534" y="706" type="line"/>
      <point x="360" y="578" type="line"/>
    </contour>
  </outline>
</glyph>
<glyph name="acircumflexhookabove" format="2">
  <advance width="827"/>
  <unicode hex="1EA9"/>
  <anchor x="441" y="0" name="bottom"/>
  <anchor x="452" y="530" name="top"/>
  <outline>
    <contour>
      <point x="35" y="423" type="line"/>
      <point x="248" y="530" type="line"/>
      <point x="249" y="530" type="line"/>
      <point x="249" y="204" type="line"/>
      <point x="35" y="204" type="line"/>
    </contour>
    <contour>
      <point x="685" y="530" type="line"/>
      <point x="792" y="327" type="line"/>
      <point x="792" y="326" type="line"/>
      <point x="249" y="326" type="line"/>
      <point x="249" y="530" type="line"/>
    </contour>
    <contour>
      <point x="792" y="0" type="line"/>
      <point x="579" y="0" type="line"/>
      <point x="578" y="0" type="line"/>
      <point x="578" y="326" type="line"/>
      <point x="792" y="326" type="line"/>
    </contour>
    <contour>
      <point x="142" y="0" type="line"/>
      <point x="35" y="203" type="line"/>
      <point x="35" y="204" type="line"/>
      <point x="578" y="204" type="line"/>
      <point x="578" y="0" type="line"/>
    </contour>
    <contour>
      <point x="689" y="578" type="line"/>
      <point x="505" y="578" type="line"/>
      <point x="381" y="675" type="line"/>
      <point x="483" y="706" type="line"/>
      <point x="534" y="706" type="line"/>
      <point x="689" y="579" type="line"/>
    </contour>
    <contour>
      <point x="186" y="578" type="line"/>
      <point x="186" y="579" type="line"/>
      <point x="350" y="706" type="line"/>
      <point x="534" y="706" type="line"/>
      <point x="360" y="578" type="line"/>
    </contour>
    <contour>
      <point x="610" y="811" type="line"/>
      <point x="302" y="811" type="line"/>
      <point x="302" y="900" type="line"/>
      <point x="523" y="900" type="line"/>
      <point x="610" y="812" type="line"/>
    </contour>
    <contour>
      <point x="497" y="736" type="line"/>
      <point x="381" y="736" type="line"/>
      <point x="381" y="737" type="line"/>
      <point x="523" y="900" type="line"/>
      <point x="610" y="812" type="line"/>
      <point x="610" y="811" type="line"/>
    </contour>
  </outline>
</glyph>
<glyph name="Acircumflextilde" format="2">
  <advance width="927"/>
  <unicode hex="1EAA"/>
  <anchor x="462" y="0" name="bottom"/>
  <anchor x="486" y="730" name="top"/>
  <outline>
    <contour>
      <point x="35" y="523" type="line"/>
      <point x="288" y="730" type="line"/>
      <point x="289" y="730" type="line"/>
      <point x="289" y="0" type="line"/>
      <point x="35" y="0" type="line"/>
    </contour>
    <contour>
      <point x="690" y="730" type="line"/>
      <point x="892" y="487" type="line"/>
      <point x="892" y="486" type="line"/>
      <point x="289" y="486" type="line"/>
      <point x="289" y="730" type="line"/>
    </contour>
    <contour>
      <point x="892" y="0" type="line"/>
      <point x="638" y="0" type="line"/>
      <point x="638" y="486" type="line"/>
      <point x="639" y="486" type="line"/>
      <point x="892" y="486" type="line"/>
    </contour>
    <contour>
      <point x="638" y="173" type="line"/>
      <point x="289" y="173" type="line"/>
      <point x="289" y="417" type="line"/>
      <point x="638" y="417" type="line"/>
      <point x="638" y="416" type="line"/>
    </contour>
    <contour>
      <point x="276" y="868" type="line"/>
      <point x="276" y="934" type="line"/>
      <point x="396" y="945" type="line"/>
      <point x="396" y="868" type="line"/>
    </contour>
    <contour>
      <point x="705" y="980" type="line"/>
      <point x="705" y="906" type="line"/>
      <point x="585" y="887" type="line"/>
      <point x="585" y="980" type="line"/>
    </contour>
    <contour>
      <point x="276" y="935" type="line"/>
      <point x="386" y="984" type="line"/>
      <point x="387" y="984" type="line"/>
      <point x="705" y="927" type="line"/>
      <point x="705" y="906" type="line"/>
      <point x="613" y="861" type="line"/>
      <point x="612" y="861" type="line"/>
      <point x="276" y="924" type="line"/>
    </contour>
    <contour>
      <point x="722" y="755" type="line"/>
      <point x="548" y="755" type="line"/>
      <point x="444" y="808" type="line"/>
      <point x="558" y="853" type="line"/>
      <point x="722" y="756" type="line"/>
    </contour>
    <contour>
      <point x="230" y="755" type="line"/>
      <point x="230" y="756" type="line"/>
      <point x="394" y="853" type="line"/>
      <point x="558" y="853" type="line"/>
      <point x="394" y="755" type="line"/>
    </contour>
  </outline>
</glyph>
<glyph name="Acircumflexdotbelow.color4" format="2">
  <advance width="600"/>
  <unicode hex="1EAC"/>
  <outline>
    <contour>
      <point x="567" y="-200" type="line"/>
      <point x="363" y="-200" type="line"/>
      <point x="363" y="-38" type="line"/>
      <point x="567" y="-38" type="line"/>
    </contour>
  </outline>
</glyph>
<glyph name="Abreveacute.color4" format="2">
  <advance width="600"/>
  <unicode hex="1EAE"/>
  <outline>
    <contour>
      <point x="419" y="852" type="line"/>
      <point x="273" y="852" type="line"/>
      <point x="236" y="890" type="line"/>
      <point x="236" y="892" type="line"/>
      <point x="372" y="892" type="line"/>
    </contour>
  </outline>
</glyph>
<glyph name="Abreveacute" format="2">
  <advance width="927"/>
  <unicode hex="1EAE"/>
  <anchor x="462" y="0" name="bottom"/>
  <anchor x="486" y="730" name="top"/>
  <outline>
    <contour>
      <point x="35" y="523" type="line"/>
      <point x="288" y="730" type="line"/>
      <point x="289" y="730" type="line"/>
      <point x="289" y="0" type="line"/>
      <point x="35" y="0" type="line"/>
    </contour>
    <contour>
      <point x="690" y="730" type="line"/>
      <point x="892" y="487" type="line"/>
      <point x="892" y="486" type="line"/>
      <point x="289" y="486" type="line"/>
      <point x="289" y="730" type="line"/>
    </contour>
    <contour>
      <point x="892" y="0" type="line"/>
      <point x="638" y="0" type="line"/>
      <point x="638" y="486" type="line"/>
      <point x="639" y="486" type="line"/>
      <point x="892" y="486" type="line"/>
    </contour>
    <contour>
      <point x="638" y="173" type="line"/>
      <point x="289" y="173" type="line"/>
      <point x="289" y="417" type="line"/>
      <point x="638" y="417" type="line"/>
      <point x="638" y="416" type="line"/>
    </contour>
    <contour>
      <point x="419" y="852" type="line"/>
      <point x="273" y="852" type="line"/>
      <point x="236" y="890" type="line"/>
      <point x="236" y="892" type="line"/>
      <point x="372" y="892" type="line"/>
    </contour>
    <contour>
      <point x="554" y="852" type="line"/>
      <point x="601" y="892" type="line"/>
      <point x="737" y="892" type="line"/>
      <point x="737" y="891" type="line"/>
      <point x="700" y="852" type="line"/>
    </contour>
    <contour>
      <point x="609" y="760" type="line"/>
      <point x="364" y="760" type="line"/>
      <point x="273" y="852" type="line"/>
      <point x="700" y="852" type="line"/>
    </contour>
    <contour>
      <point x="422" y="870" type="line"/>
      <point x="455" y="980" type="line"/>
      <point x="621" y="980" type="line"/>
      <point x="621" y="979" type="line"/>
      <point x="518" y="870" type="line"/>
    </contour>
  </outline>
</glyph>
<glyph name="abreveacute.color4" format="2">
  <advance width="600"/>
  <unicode hex="1EAF"/>
  <outline>
    <contour>
      <point x="365" y="685" type="line"/>
      <point x="239" y="685" type="line"/>
      <point x="192" y="754" type="line"/>
      <point x="192" y="756" type="line"/>
      <point x="318" y="756" type="line"/>
    </contour>
  </outline>
</glyph>
<glyph name="Abrevegrave.color5" format="2">
  <advance width="600"/>
  <unicode hex="1EB0"/>
  <outline>
    <contour>
      <point x="554" y="852" type="line"/>
      <point x="601" y="892" type="line"/>
      <point x="737" y="892" type="line"/>
      <point x="737" y="891" type="line"/>
      <point x="700" y="852" type="line"/>
    </contour>
  </outline>
</glyph>
<glyph name="abrevegrave.color5" format="2">
  <advance width="600"/>
  <unicode hex="1EB1"/>
  <outline>
    <contour>
      <point x="519" y="685" type="line"/>
      <point x="566" y="756" type="line"/>
      <point x="692" y="756" type="line"/>
      <point x="692" y="755" type="line"/>
      <point x="645" y="685" type="line"/>
    </contour>
  </outline>
</glyph>
<glyph name="Abrevehookabove.color8" format="2">
  <advance width="600"/>
  <unicode hex="1EB2"/>
  <outline>
    <contour>
      <point x="537" y="874" type="line"/>
      <point x="440" y="874" type="line"/>
      <point x="439" y="874" type="line"/>
      <point x="567" y="1010" type="line"/>
      <point x="634" y="929" type="line"/>
      <point x="634" y="928" type="line"/>
    </contour>
  </outline>
</glyph>
<glyph name="abrevehookabove.color4" format="2">
  <advance width="600"/>
  <unicode hex="1EB3"/>
  <outline>
    <contour>
      <point x="375" y="675" type="line"/>
      <point x="249" y="675" type="line"/>
      <point x="202" y="744" type="line"/>
      <point x="202" y="746" type="line"/>
      <point x="328" y="746" type="line"/>
    </contour>
  </outline>
</glyph>
<glyph name="abrevehookabove.color7" format="2">
  <advance width="600"/>
  <unicode hex="1EB3"/>
  <outline>
    <contour>
      <point x="580" y="803" type="line"/>
      <point x="322" y="803" type="line"/>
      <point x="322" y="900" type="line"/>
      <point x="493" y="900" type="line"/>
      <point x="580" y="804" type="line"/>
    </contour>
  </outline>
</glyph>
<glyph name="abrevehookabove.color8" format="2">
  <advance width="600"/>
  <unicode hex="1EB3"/>
  <outline>
    <contour>
      <point x="499" y="716" type="line"/>
      <point x="392" y="716" type="line"/>
      <point x="391" y="716" type="line"/>
      <point x="493" y="900" type="line"/>
      <point x="580" y="804" type="line"/>
      <point x="580" y="803" type="line"/>
    </contour>
  </outline>
</glyph>
<glyph name="Abrevetilde.color4" format="2">
  <advance width="600"/>
  <unicode hex="1EB4"/>
  <outline>
    <contour>
      <point x="359" y="852" type="line"/>
      <point x="213" y="852" type="line"/>
      <point x="171" y="898" type="line"/>
      <point x="171" y="900" type="line"/>
      <point x="307" y="900" type="line"/>
    </contour>
  </outline>
</glyph>
<glyph name="Abrevetilde.color9" format="2">
  <advance width="600"/>
  <unicode hex="1EB4"/>
  <outline>
    <contour>
      <point x="370" y="944" type="line"/>
      <point x="370" y="945" type="line"/>
      <point x="485" y="984" type="line"/>
      <point x="526" y="984" type="line"/>
      <point x="805" y="927" type="line"/>
      <point x="805" y="916" type="line"/>
      <point x="723" y="879" type="line"/>
      <point x="682" y="879" type="line"/>
    </contour>
  </outline>
</glyph>
<glyph name="abrevetilde" format="2">
  <advance width="827"/>
  <unicode hex="1EB5"/>
  <anchor x="441" y="0" name="bottom"/>
  <anchor x="467" y="860" name="top"/>
  <outline>
    <contour>
      <point x="35" y="423" type="line"/>
      <point x="248" y="530" type="line"/>
      <point x="249" y="530" type="line"/>
      <point x="249" y="204" type="line"/>
      <point x="35" y="204" type="line"/>
    </contour>
    <contour>
      <point x="685" y="530" type="line"/>
      <point x="792" y="327" type="line"/>
      <point x="792" y="326" type="line"/>
      <point x="249" y="326" type="line"/>
      <point x="249" y="530" type="line"/>
    </contour>
    <contour>
      <point x="792" y="0" type="line"/>
      <point x="579" y="0" type="line"/>
      <point x="578" y="0" type="line"/>
      <point x="578" y="326" type="line"/>
      <point x="792" y="326" type="line"/>
    </contour>
    <contour>
      <point x="142" y="0" type="line"/>
      <point x="35" y="203" type="line"/>
      <point x="35" y="204" type="line"/>
      <point x="578" y="204" type="line"/>
      <point x="578" y="0" type="line"/>
    </contour>
    <contour>
      <point x="375" y="685" type="line"/>
      <point x="249" y="685" type="line"/>
      <point x="202" y="754" type="line"/>
      <point x="202" y="756" type="line"/>
      <point x="328" y="756" type="line"/>
    </contour>
    <contour>
      <point x="530" y="685" type="line"/>
      <point x="565" y="741" type="line"/>
      <point x="691" y="741" type="line"/>
      <point x="691" y="740" type="line"/>
      <point x="656" y="685" type="line"/>
    </contour>
    <contour>
      <point x="595" y="578" type="line"/>
      <point x="310" y="578" type="line"/>
      <point x="249" y="685" type="line"/>
      <point x="656" y="685" type="line"/>
    </contour>
    <contour>
      <point x="382" y="731" type="line"/>
      <point x="382" y="852" type="line"/>
      <point x="492" y="833" type="line"/>
      <point x="492" y="731" type="line"/>
    </contour>
    <contour>
      <point x="740" y="919" type="line"/>
      <point x="740" y="800" type="line"/>
      <point x="620" y="820" type="line"/>
      <point x="620" y="919" type="line"/>
    </contour>
    <contour>
      <point x="382" y="851" type="line"/>
      <point x="382" y="852" type="line"/>
      <point x="482" y="902" type="line"/>
      <point x="483" y="902" type="line"/>
      <point x="740" y="821" type="line"/>
      <point x="740" y="800" type="line"/>
      <point x="630" y="760" type="line"/>
      <point x="619" y="760" type="line"/>
    </contour>
  </outline>
</glyph>
<glyph name="Abrevedotbelow.color7" format="2">
  <advance width="600"/>
  <unicode hex="1EB6"/>
  <outline>
    <contour>
      <point x="599" y="760" type="line"/>
      <point x="354" y="760" type="line"/>
      <point x="260" y="860" type="line"/>
      <point x="693" y="860" type="line"/>
    </contour>
  </outline>
</glyph>
<glyph name="edotbelow.color5" format="2">
  <advance width="600"/>
  <unicode hex="1EB9"/>
  <outline>
    <contour>
      <point x="536" y="-200" type="line"/>
      <point x="332" y="-200" type="line"/>
      <point x="332" y="-38" type="line"/>
      <point x="536" y="-38" type="line"/>
    </contour>
  </outline>
</glyph>
<glyph name="Ehookabove.color4" format="2">
  <advance width="600"/>
  <unicode hex="1EBA"/>
  <outline>
    <contour>
      <point x="634" y="838" type="line"/>
      <point x="266" y="838" type="line"/>
      <point x="266" y="940" type="line"/>
      <point x="527" y="940" type="line"/>
      <point x="634" y="839" type="line"/>
    </contour>
  </outline>
</glyph>
<glyph name="ehookabove.color3" format="2">
  <advance width="600"/>
  <unicode hex="1EBB"/>
  <outline>
    <contour>
      <point x="598" y="331" type="line"/>
      <point x="598" y="221" type="line"/>
      <point x="259" y="220" type="line"/>
      <point x="259" y="331" type="line"/>
    </contour>
  </outline>
</glyph>
<glyph name="Etilde.color5" format="2">
  <advance width="600"/>
  <unicode hex="1EBC"/>
  <outline>
    <contour>
      <point x="686" y="915" type="line"/>
      <point x="686" y="827" type="line"/>
      <point x="547" y="806" type="line"/>
      <point x="547" y="915" type="line"/>
    </contour>
  </outline>
</glyph>
<glyph name="etilde.color7" format="2">
  <advance width="600"/>
  <unicode hex="1EBD"/>
  <outline>
    <contour>
      <point x="229" y="722" type="line"/>
      <point x="229" y="723" type="line"/>
      <point x="358" y="762" type="line"/>
      <point x="359" y="762" type="line"/>
      <point x="627" y="630" type="line"/>
      <point x="627" y="629" type="line"/>
      <point x="499" y="590" type="line"/>
      <point x="498" y="590" type="line"/>
    </contour>
  </outline>
</glyph>
<glyph name="etilde" format="2">
  <advance width="837"/>
  <unicode hex="1EBD"/>
  <anchor x="431" y="0" name="bottom"/>
  <anchor x="442" y="530" name="top"/>
  <outline>
    <contour>
      <point x="45" y="423" type="line"/>
      <point x="258" y="530" type="line"/>
      <point x="259" y="530" type="line"/>
      <point x="259" y="200" type="line"/>
      <point x="45" y="200" type="line"/>
    </contour>
    <contour>
      <point x="705" y="530" type="line"/>
      <point x="812" y="352" type="line"/>
      <point x="812" y="351" type="line"/>
      <point x="259" y="351" type="line"/>
      <point x="259" y="530" type="line"/>
    </contour>
    <contour>
      <point x="152" y="0" type="line"/>
      <point x="45" y="199" type="line"/>
      <point x="45" y="200" type="line"/>
      <point x="812" y="200" type="line"/>
      <point x="812" y="199" type="line"/>
      <point x="705" y="0" type="line"/>
    </contour>
    <contour>
      <point x="598" y="331" type="line"/>
      <point x="598" y="221" type="line"/>
      <point x="259" y="220" type="line"/>
      <point x="259" y="331" type="line"/>
    </contour>
    <contour>
      <point x="812" y="328" type="line"/>
      <point x="599" y="221" type="line"/>
      <point x="598" y="221" type="line"/>
      <point x="598" y="351" type="line"/>
      <point x="812" y="351" type="line"/>
    </contour>
    <contour>
      <point x="229" y="601" type="line"/>
      <point x="229" y="722" type="line"/>
      <point x="349" y="703" type="line"/>
      <point x="349" y="601" type="line"/>
    </contour>
    <contour>
      <point x="627" y="749" type="line"/>
      <point x="627" y="630" type="line"/>
      <point x="508" y="640" type="line"/>
      <point x="508" y="749" type="line"/>
    </contour>
    <contour>
      <point x="229" y="722" type="line"/>
      <point x="229" y="723" type="line"/>
      <point x="358" y="762" type="line"/>
      <point x="359" y="762" type="line"/>
      <point x="627" y="630" type="line"/>
      <point x="627" y="629" type="line"/>
      <point x="499" y="590" type="line"/>
      <point x="498" y="590" type="line"/>
    </contour>
  </outline>
</glyph>
<glyph name="Ecircumflexhookabove.color5" format="2">
  <advance width="600"/>
  <unicode hex="1EC2"/>
  <outline>
    <contour>
      <point x="210" y="755" type="line"/>
      <point x="210" y="756" type="line"/>
      <point x="364" y="873" type="line"/>
      <point x="523" y="873" type="line"/>
      <point x="364" y="755" type="line"/>
    </contour>
  </outline>
</glyph>
<glyph name="Ecircumflexhookabove.color6" format="2">
  <advance width="600"/>
  <unicode hex="1EC2"/>
  <outline>
    <contour>
      <point x="764" y="892" type="line"/>
      <point x="476" y="892" type="line"/>
      <point x="476" y="980" type="line"/>
      <point x="687" y="980" type="line"/>
      <point x="764" y="893" type="line"/>
    </contour>
  </outline>
</glyph>
<glyph name="Ecircumflextilde.color4" format="2">
  <advance width="600"/>
  <unicode hex="1EC4"/>
  <outline>
    <contour>
      <point x="246" y="868" type="line"/>
      <point x="246" y="934" type="line"/>
      <point x="366" y="945" type="line"/>
      <point x="366" y="868" type="line"/>
    </contour>
  </outline>
</glyph>
<glyph name="ecircumflextilde.color8" format="2">
  <advance width="600"/>
  <unicode hex="1EC5"/>
  <outline>
    <contour>
      <point x="640" y="891" type="line"/>
      <point x="640" y="790" type="line"/>
      <point x="521" y="790" type="line"/>
      <point x="521" y="891" type="line"/>
    </contour>
  </outline>
</glyph>
<glyph name="Ohookabove" format="2">
  <advance width="907"/>
  <unicode hex="1ECE"/>
  <anchor x="452" y="0" name="bottom"/>
  <anchor x="680" y="730" name="horn"/>
  <anchor x="476" y="730" name="top"/>
  <outline>
    <contour>
      <point x="25" y="523" type="line"/>
      <point x="278" y="730" type="line"/>
      <point x="279" y="730" type="line"/>
      <point x="279" y="244" type="line"/>
      <point x="25" y="244" type="line"/>
    </contour>
    <contour>
      <point x="680" y="730" type="line"/>
      <point x="882" y="487" type="line"/>
      <point x="882" y="486" type="line"/>
      <point x="279" y="486" type="line"/>
      <point x="279" y="730" type="line"/>
    </contour>
    <contour>
      <point x="882" y="197" type="line"/>
      <point x="629" y="0" type="line"/>
      <point x="628" y="0" type="line"/>
      <point x="628" y="486" type="line"/>
      <point x="882" y="486" type="line"/>
    </contour>
    <contour>
      <point x="227" y="0" type="line"/>
      <point x="25" y="243" type="line"/>
      <point x="25" y="244" type="line"/>
      <point x="628" y="244" type="line"/>
      <point x="628" y="0" type="line"/>
    </contour>
    <contour>
      <point x="654" y="838" type="line"/>
      <point x="286" y="838" type="line"/>
      <point x="286" y="940" type="line"/>
      <point x="547" y="940" type="line"/>
      <point x="654" y="839" type="line"/>
    </contour>
    <contour>
      <point x="513" y="760" type="line"/>
      <point x="396" y="760" type="line"/>
      <point x="395" y="760" type="line"/>
      <point x="547" y="940" type="line"/>
      <point x="654" y="839" type="line"/>
      <point x="654" y="838" type="line"/>
    </contour>
  </outline>
</glyph>
<glyph name="Ocircumflexgrave.color6" format="2">
  <advance width="600"/>
  <unicode hex="1ED2"/>
  <outline>
    <contour>
      <point x="758" y="808" type="line"/>
      <point x="642" y="808" type="line"/>
      <point x="549" y="950" type="line"/>
      <point x="715" y="950" type="line"/>
      <point x="715" y="949" type="line"/>
    </contour>
  </outline>
</glyph>
<glyph name="Ocircumflexgrave" format="2">
  <advance width="907"/>
  <unicode hex="1ED2"/>
  <anchor x="452" y="0" name="bottom"/>
  <anchor x="680" y="730" name="horn"/>
  <anchor x="476" y="730" name="top"/>
  <outline>
    <contour>
      <point x="25" y="523" type="line"/>
      <point x="278" y="730" type="line"/>
      <point x="279" y="730" type="line"/>
      <point x="279" y="244" type="line"/>
      <point x="25" y="244" type="line"/>
    </contour>
    <contour>
      <point x="680" y="730" type="line"/>
      <point x="882" y="487" type="line"/>
      <point x="882" y="486" type="line"/>
      <point x="279" y="486" type="line"/>
      <point x="279" y="730" type="line"/>
    </contour>
    <contour>
      <point x="882" y="197" type="line"/>
      <point x="629" y="0" type="line"/>
      <point x="628" y="0" type="line"/>
      <point x="628" y="486" type="line"/>
      <point x="882" y="486" type="line"/>
    </contour>
    <contour>
      <point x="227" y="0" type="line"/>
      <point x="25" y="243" type="line"/>
      <point x="25" y="244" type="line"/>
      <point x="628" y="244" type="line"/>
      <point x="628" y="0" type="line"/>
    </contour>
    <contour>
      <point x="666" y="755" type="line"/>
      <point x="509" y="755" type="line"/>
      <point x="405" y="852" type="line"/>
      <point x="487" y="883" type="line"/>
      <point x="538" y="883" type="line"/>
      <point x="666" y="756" type="line"/>
    </contour>
    <contour>
      <point x="240" y="755" type="line"/>
      <point x="240" y="756" type="line"/>
      <point x="374" y="883" type="line"/>
      <point x="538" y="883" type="line"/>
      <point x="394" y="755" type="line"/>
    </contour>
    <contour>
      <point x="758" y="808" type="line"/>
      <point x="642" y="808" type="line"/>
      <point x="549" y="950" type="line"/>
      <point x="715" y="950" type="line"/>
      <point x="715" y="949" type="line"/>
    </contour>
  </outline>
</glyph>
<glyph name="ocircumflexgrave" format="2">
  <advance width="837"/>
  <unicode hex="1ED3"/>
  <anchor x="422" y="0" name="bottom"/>
  <anchor x="665" y="530" name="horn"/>
  <anchor x="442" y="530" name="top"/>
  <outline>
    <contour>
      <point x="25" y="423" type="line"/>
      <point x="238" y="530" type="line"/>
      <point x="239" y="530" type="line"/>
      <point x="239" y="204" type="line"/>
      <point x="25" y="204" type="line"/>
    </contour>
    <contour>
      <point x="705" y="530" type="line"/>
      <point x="812" y="327" type="line"/>
      <point x="812" y="326" type="line"/>
      <point x="239" y="326" type="line"/>
      <point x="239" y="530" type="line"/>
    </contour>
    <contour>
      <point x="812" y="107" type="line"/>
      <point x="599" y="0" type="line"/>
      <point x="598" y="0" type="line"/>
      <point x="598" y="326" type="line"/>
      <point x="812" y="326" type="line"/>
    </contour>
    <contour>
      <point x="132" y="0" type="line"/>
      <point x="25" y="203" type="line"/>
      <point x="25" y="204" type="line"/>
      <point x="598" y="204" type="line"/>
      <point x="598" y="0" type="line"/>
    </contour>
    <contour>
      <point x="502" y="740" type="line"/>
      <point x="406" y="740" type="line"/>
      <point x="281" y="899" type="line"/>
      <point x="281" y="900" type="line"/>
      <point x="447" y="900" type="line"/>
    </contour>
    <contour>
      <point x="679" y="578" type="line"/>
      <point x="495" y="578" type="line"/>
      <point x="371" y="675" type="line"/>
      <point x="473" y="706" type="line"/>
      <point x="524" y="706" type="line"/>
      <point x="679" y="579" type="line"/>
    </contour>
    <contour>
      <point x="176" y="578" type="line"/>
      <point x="176" y="579" type="line"/>
      <point x="340" y="706" type="line"/>
      <point x="524" y="706" type="line"/>
      <point x="350" y="578" type="line"/>
    </contour>
  </outline>
</glyph>
<glyph name="Ocircumflexhookabove.color4" format="2">
  <advance width="600"/>
  <unicode hex="1ED4"/>
  <outline>
    <contour>
      <point x="682" y="755" type="line"/>
      <point x="528" y="755" type="line"/>
      <point x="414" y="838" type="line"/>
      <point x="474" y="854" type="line"/>
      <point x="543" y="873" type="line"/>
      <point x="682" y="756" type="line"/>
    </contour>
  </outline>
</glyph>
<glyph name="Ocircumflexdotbelow" format="2">
  <advance width="907"/>
  <unicode hex="1ED8"/>
  <anchor x="452" y="0" name="bottom"/>
  <anchor x="680" y="730" name="horn"/>
  <anchor x="476" y="730" name="top"/>
  <outline>
    <contour>
      <point x="25" y="523" type="line"/>
      <point x="278" y="730" type="line"/>
      <point x="279" y="730" type="line"/>
      <point x="279" y="244" type="line"/>
      <point x="25" y="244" type="line"/>
    </contour>
    <contour>
      <point x="680" y="730" type="line"/>
      <point x="882" y="487" type="line"/>
      <point x="882" y="486" type="line"/>
      <point x="279" y="486" type="line"/>
      <point x="279" y="730" type="line"/>
    </contour>
    <contour>
      <point x="882" y="197" type="line"/>
      <point x="629" y="0" type="line"/>
      <point x="628" y="0" type="line"/>
      <point x="628" y="486" type="line"/>
      <point x="882" y="486" type="line"/>
    </contour>
    <contour>
      <point x="227" y="0" type="line"/>
      <point x="25" y="243" type="line"/>
      <point x="25" y="244" type="line"/>
      <point x="628" y="244" type="line"/>
      <point x="628" y="0" type="line"/>
    </contour>
    <contour>
      <point x="557" y="-200" type="line"/>
      <point x="353" y="-200" type="line"/>
      <point x="353" y="-38" type="line"/>
      <point x="557" y="-38" type="line"/>
    </contour>
    <contour>
      <point x="716" y="760" type="line"/>
      <point x="559" y="760" type="line"/>
      <point x="425" y="867" type="line"/>
      <point x="517" y="900" type="line"/>
      <point x="558" y="900" type="line"/>
      <point x="716" y="761" type="line"/>
    </contour>
    <contour>
      <point x="250" y="760" type="line"/>
      <point x="250" y="761" type="line"/>
      <point x="404" y="900" type="line"/>
      <point x="558" y="900" type="line"/>
      <point x="404" y="760" type="line"/>
    </contour>
  </outline>
</glyph>
<glyph name="ohornhookabove.color7" format="2">
  <advance width="600"/>
  <unicode hex="1EDF"/>
  <outline>
    <contour>
      <point x="509" y="586" type="line"/>
      <point x="392" y="586" type="line"/>
      <point x="391" y="586" type="line"/>
      <point x="543" y="850" type="line"/>
      <point x="630" y="737" type="line"/>
      <point x="630" y="736" type="line"/>
    </contour>
  </outline>
</glyph>
<glyph name="Ohorntilde.color7" format="2">
  <advance width="600"/>
  <unicode hex="1EE0"/>
  <outline>
    <contour>
      <point x="706" y="915" type="line"/>
      <point x="706" y="827" type="line"/>
      <point x="567" y="806" type="line"/>
      <point x="567" y="915" type="line"/>
    </contour>
  </outline>
</glyph>
<glyph name="Ohorntilde.color8" format="2">
  <advance width="600"/>
  <unicode hex="1EE0"/>
  <outline>
    <contour>
      <point x="238" y="853" type="line"/>
      <point x="238" y="854" type="line"/>
      <point x="376" y="923" type="line"/>
      <point x="387" y="923" type="line"/>
      <point x="706" y="827" type="line"/>
      <point x="706" y="826" type="line"/>
      <point x="568" y="756" type="line"/>
      <point x="557" y="756" type="line"/>
    </contour>
  </outline>
</glyph>
<glyph name="ohorntilde.color7" format="2">
  <advance width="600"/>
  <unicode hex="1EE1"/>
  <outline>
    <contour>
      <point x="627" y="749" type="line"/>
      <point x="627" y="630" type="line"/>
      <point x="508" y="640" type="line"/>
      <point x="508" y="749" type="line"/>
    </contour>
  </outline>
</glyph>
<glyph name="Uhookabove.color4" format="2">
  <advance width="600"/>
  <unicode hex="1EE6"/>
  <outline>
    <contour>
      <point x="513" y="760" type="line"/>
      <point x="396" y="760" type="line"/>
      <point x="395" y="760" type="line"/>
      <point x="547" y="940" type="line"/>
      <point x="654" y="839" type="line"/>
      <point x="654" y="838" type="line"/>
    </contour>
  </outline>
</glyph>
<glyph name="Uhornhookabove.color3" format="2">
  <advance width="600"/>
  <unicode hex="1EEC"/>
  <outline>
    <contour>
      <point x="628" y="730" type="line"/>
      <point x="882" y="730" type="line"/>
      <point x="882" y="576" type="line"/>
      <point x="811" y="576" type="line"/>
      <point x="628" y="729" type="line"/>
    </contour>
  </outline>
</glyph>
<glyph name="uhornhookabove.color5" format="2">
  <advance width="600"/>
  <unicode hex="1EED"/>
  <outline>
    <contour>
      <point x="610" y="736" type="line"/>
      <point x="282" y="736" type="line"/>
      <point x="282" y="850" type="line"/>
      <point x="523" y="850" type="line"/>
      <point x="610" y="737" type="line"/>
    </contour>
  </outline>
</glyph>
<glyph name="uhorntilde.color7" format="2">
  <advance width="600"/>
  <unicode hex="1EEF"/>
  <outline>
    <contour>
      <point x="209" y="722" type="line"/>
      <point x="209" y="723" type="line"/>
      <point x="338" y="762" type="line"/>
      <point x="339" y="762" type="line"/>
      <point x="607" y="630" type="line"/>
      <point x="607" y="629" type="line"/>
      <point x="479" y="590" type="line"/>
      <point x="478" y="590" type="line"/>
    </contour>
  </outline>
</glyph>
<glyph name="ygrave" format="2">
  <advance width="779"/>
  <unicode hex="1EF3"/>
  <anchor x="402" y="-200" name="bottom"/>
  <anchor x="422" y="530" name="top"/>
  <outline>
    <contour>
      <point x="142" y="0" type="line"/>
      <point x="35" y="203" type="line"/>
      <point x="35" y="204" type="line"/>
      <point x="529" y="204" type="line"/>
      <point x="529" y="0" type="line"/>
    </contour>
    <contour>
      <point x="744" y="-104" type="line"/>
      <point x="531" y="-206" type="line"/>
      <point x="530" y="-206" type="line"/>
      <point x="530" y="530" type="line"/>
      <point x="744" y="530" type="line"/>
    </contour>
    <contour>
      <point x="35" y="489" type="line"/>
      <point x="248" y="536" type="line"/>
      <point x="249" y="536" type="line"/>
      <point x="249" y="204" type="line"/>
      <point x="35" y="204" type="line"/>
    </contour>
    <contour>
      <point x="137" y="-206" type="line"/>
      <point x="35" y="-27" type="line"/>
      <point x="35" y="-26" type="line"/>
      <point x="530" y="-26" type="line"/>
      <point x="530" y="-206" type="line"/>
    </contour>
    <contour>
      <point x="479" y="590" type="line"/>
      <point x="373" y="590" type="line"/>
      <point x="268" y="819" type="line"/>
      <point x="268" y="820" type="line"/>
      <point x="444" y="820" type="line"/>
    </contour>
  </outline>
</glyph>
<glyph name="Ydotbelow" format="2">
  <advance width="840"/>
  <unicode hex="1EF4"/>
  <anchor x="417" y="0" name="bottom"/>
  <anchor x="443" y="730" name="top"/>
  <outline>
    <contour>
      <point x="0" y="730" type="line"/>
      <point x="273" y="730" type="line"/>
      <point x="436" y="467" type="line"/>
      <point x="289" y="285" type="line"/>
      <point x="288" y="285" type="line"/>
    </contour>
    <contour>
      <point x="840" y="730" type="line"/>
      <point x="552" y="285" type="line"/>
      <point x="289" y="285" type="line"/>
      <point x="566" y="730" type="line"/>
    </contour>
    <contour>
      <point x="552" y="0" type="line"/>
      <point x="288" y="0" type="line"/>
      <point x="288" y="285" type="line"/>
      <point x="552" y="285" type="line"/>
    </contour>
    <contour>
      <point x="522" y="-200" type="line"/>
      <point x="318" y="-200" type="line"/>
      <point x="318" y="-38" type="line"/>
      <point x="522" y="-38" type="line"/>
    </contour>
  </outline>
</glyph>
<glyph name="Yhookabove.color3" format="2">
  <advance width="600"/>
  <unicode hex="1EF6"/>
  <outline>
    <contour>
      <point x="621" y="838" type="line"/>
      <point x="253" y="838" type="line"/>
      <point x="253" y="940" type="line"/>
      <point x="514" y="940" type="line"/>
      <point x="621" y="839" type="line"/>
    </contour>
  </outline>
</glyph>
<glyph name="Yhookabove" format="2">
  <advance width="840"/>
  <unicode hex="1EF6"/>
  <anchor x="417" y="0" name="bottom"/>
  <anchor x="443" y="730" name="top"/>
  <outline>
    <contour>
      <point x="0" y="730" type="line"/>
      <point x="273" y="730" type="line"/>
      <point x="436" y="467" type="line"/>
      <point x="289" y="285" type="line"/>
      <point x="288" y="285" type="line"/>
    </contour>
    <contour>
      <point x="840" y="730" type="line"/>
      <point x="552" y="285" type="line"/>
      <point x="289" y="285" type="line"/>
      <point x="566" y="730" type="line"/>
    </contour>
    <contour>
      <point x="552" y="0" type="line"/>
      <point x="288" y="0" type="line"/>
      <point x="288" y="285" type="line"/>
      <point x="552" y="285" type="line"/>
    </contour>
    <contour>
      <point x="621" y="838" type="line"/>
      <point x="253" y="838" type="line"/>
      <point x="253" y="940" type="line"/>
      <point x="514" y="940" type="line"/>
      <point x="621" y="839" type="line"/>
    </contour>
    <contour>
      <point x="480" y="760" type="line"/>
      <point x="363" y="760" type="line"/>
      <point x="362" y="760" type="line"/>
      <point x="514" y="940" type="line"/>
      <point x="621" y="839" type="line"/>
      <point x="621" y="838" type="line"/>
    </contour>
  </outline>
</glyph>
<glyph name="yhookabove" format="2">
  <advance width="779"/>
  <unicode hex="1EF7"/>
  <anchor x="402" y="-200" name="bottom"/>
  <anchor x="422" y="530" name="top"/>
  <outline>
    <contour>
      <point x="142" y="0" type="line"/>
      <point x="35" y="203" type="line"/>
      <point x="35" y="204" type="line"/>
      <point x="529" y="204" type="line"/>
      <point x="529" y="0" type="line"/>
    </contour>
    <contour>
      <point x="744" y="-104" type="line"/>
      <point x="531" y="-206" type="line"/>
      <point x="530" y="-206" type="line"/>
      <point x="530" y="530" type="line"/>
      <point x="744" y="530" type="line"/>
    </contour>
    <contour>
      <point x="35" y="489" type="line"/>
      <point x="248" y="536" type="line"/>
      <point x="249" y="536" type="line"/>
      <point x="249" y="204" type="line"/>
      <point x="35" y="204" type="line"/>
    </contour>
    <contour>
      <point x="137" y="-206" type="line"/>
      <point x="35" y="-27" type="line"/>
      <point x="35" y="-26" type="line"/>
      <point x="530" y="-26" type="line"/>
      <point x="530" y="-206" type="line"/>
    </contour>
    <contour>
      <point x="610" y="736" type="line"/>
      <point x="282" y="736" type="line"/>
      <point x="282" y="850" type="line"/>
      <point x="523" y="850" type="line"/>
      <point x="610" y="737" type="line"/>
    </contour>
    <contour>
      <point x="489" y="586" type="line"/>
      <point x="372" y="586" type="line"/>
      <point x="371" y="586" type="line"/>
      <point x="523" y="850" type="line"/>
      <point x="610" y="737" type="line"/>
      <point x="610" y="736" type="line"/>
    </contour>
  </outline>
</glyph>
<glyph name="Ytilde.color3" format="2">
  <advance width="600"/>
  <unicode hex="1EF8"/>
  <outline>
    <contour>
      <point x="205" y="772" type="line"/>
      <point x="205" y="853" type="line"/>
      <point x="345" y="864" type="line"/>
      <point x="345" y="772" type="line"/>
    </contour>
  </outline>
</glyph>
<glyph name="ytilde" format="2">
  <advance width="779"/>
  <unicode hex="1EF9"/>
  <anchor x="402" y="-200" name="bottom"/>
  <anchor x="422" y="530" name="top"/>
  <outline>
    <contour>
      <point x="142" y="0" type="line"/>
      <point x="35" y="203" type="line"/>
      <point x="35" y="204" type="line"/>
      <point x="529" y="204" type="line"/>
      <point x="529" y="0" type="line"/>
    </contour>
    <contour>
      <point x="744" y="-104" type="line"/>
      <point x="531" y="-206" type="line"/>
      <point x="530" y="-206" type="line"/>
      <point x="530" y="530" type="line"/>
      <point x="744" y="530" type="line"/>
    </contour>
    <contour>
      <point x="35" y="489" type="line"/>
      <point x="248" y="536" type="line"/>
      <point x="249" y="536" type="line"/>
      <point x="249" y="204" type="line"/>
      <point x="35" y="204" type="line"/>
    </contour>
    <contour>
      <point x="137" y="-206" type="line"/>
      <point x="35" y="-27" type="line"/>
      <point x="35" y="-26" type="line"/>
      <point x="530" y="-26" type="line"/>
      <point x="530" y="-206" type="line"/>
    </contour>
    <contour>
      <point x="209" y="601" type="line"/>
      <point x="209" y="722" type="line"/>
      <point x="329" y="703" type="line"/>
      <point x="329" y="601" type="line"/>
    </contour>
    <contour>
      <point x="607" y="749" type="line"/>
      <point x="607" y="630" type="line"/>
      <point x="488" y="640" type="line"/>
      <point x="488" y="749" type="line"/>
    </contour>
    <contour>
      <point x="209" y="722" type="line"/>
      <point x="209" y="723" type="line"/>
      <point x="338" y="762" type="line"/>
      <point x="339" y="762" type="line"/>
      <point x="607" y="630" type="line"/>
      <point x="607" y="629" type="line"/>
      <point x="479" y="590" type="line"/>
      <point x="478" y="590" type="line"/>
    </contour>
  </outline>
</glyph>
<glyph name="guilsinglleft.color1" format="2">
  <advance width="600"/>
  <unicode hex="2039"/>
  <outline>
    <contour>
      <point x="277" y="-4" type="line"/>
      <point x="35" y="256" type="line"/>
      <point x="35" y="257" type="line"/>
      <point x="273" y="257" type="line"/>
      <point x="514" y="0" type="line"/>
      <point x="514" y="-4" type="line"/>
    </contour>
  </outline>
</glyph>
<glyph name="foursuperior.color0" format="2">
  <advance width="600"/>
  <unicode hex="2074"/>
  <outline>
    <contour>
      <point x="291" y="533" type="line"/>
      <point x="110" y="533" type="line"/>
      <point x="121" y="670" type="line"/>
      <point x="291" y="670" type="line"/>
    </contour>
  </outline>
</glyph>
<glyph name="foursuperior.color1" format="2">
  <advance width="600"/>
  <unicode hex="2074"/>
  <outline>
    <contour>
      <point x="187" y="794" type="line"/>
      <point x="366" y="794" type="line"/>
      <point x="366" y="793" type="line"/>
      <point x="110" y="533" type="line"/>
      <point x="5" y="618" type="line"/>
    </contour>
  </outline>
</glyph>
<glyph name="franc" format="2">
  <advance width="779"/>
  <unicode hex="20A3"/>
  <outline>
    <contour>
      <point x="464" y="143" type="line"/>
      <point x="487" y="120" type="line"/>
      <point x="487" y="119" type="line"/>
      <point x="-32" y="118" type="line"/>
      <point x="-32" y="119" type="line"/>
      <point x="-55" y="142" type="line"/>
    </contour>
    <component base="F" xOffset="12"/>
  </outline>
</glyph>
<glyph name="lira.color1" format="2">
  <advance width="600"/>
  <unicode hex="20A4"/>
  <outline>
    <contour>
      <point x="869" y="334" type="line"/>
      <point x="892" y="311" type="line"/>
      <point x="892" y="310" type="line"/>
      <point x="93" y="309" type="line"/>
      <point x="93" y="310" type="line"/>
      <point x="70" y="333" type="line"/>
    </contour>
  </outline>
</glyph>
<glyph name="naira" format="2">
  <advance width="1048"/>
  <unicode hex="20A6"/>
  <outline>
    <contour>
      <point x="70" y="0" type="line"/>
      <point x="70" y="571" type="line"/>
      <point x="324" y="345" type="line"/>
      <point x="324" y="0" type="line"/>
    </contour>
    <contour>
      <point x="897" y="730" type="line"/>
      <point x="897" y="172" type="line"/>
      <point x="643" y="397" type="line"/>
      <point x="643" y="730" type="line"/>
    </contour>
    <contour>
      <point x="1045" y="368" type="line"/>
      <point x="1068" y="345" type="line"/>
      <point x="1068" y="344" type="line"/>
      <point x="3" y="343" type="line"/>
      <point x="3" y="344" type="line"/>
      <point x="-20" y="367" type="line"/>
    </contour>
    <contour>
      <point x="1045" y="279" type="line"/>
      <point x="1068" y="256" type="line"/>
      <point x="1068" y="255" type="line"/>
      <point x="3" y="254" type="line"/>
      <point x="3" y="255" type="line"/>
      <point x="-20" y="278" type="line"/>
    </contour>
    <contour>
      <point x="70" y="571" type="line"/>
      <point x="70" y="572" type="line"/>
      <point x="262" y="736" type="line"/>
      <point x="263" y="736" type="line"/>
      <point x="897" y="172" type="line"/>
      <point x="897" y="171" type="line"/>
      <point x="718" y="-6" type="line"/>
      <point x="717" y="-6" type="line"/>
    </contour>
  </outline>
</glyph>
<glyph name="dong.color0" format="2">
  <advance width="600"/>
  <unicode hex="20AB"/>
  <outline>
    <contour>
      <point x="805" y="730" type="line"/>
      <point x="923" y="631" type="line"/>
      <point x="923" y="630" type="line"/>
      <point x="285" y="630" type="line"/>
      <point x="167" y="729" type="line"/>
      <point x="167" y="730" type="line"/>
    </contour>
  </outline>
</glyph>
<glyph name="dong.color3" format="2">
  <advance width="600"/>
  <unicode hex="20AB"/>
  <outline>
    <contour>
      <point x="773" y="257" type="line"/>
      <point x="560" y="150" type="line"/>
      <point x="559" y="150" type="line"/>
      <point x="559" y="374" type="line"/>
      <point x="773" y="374" type="line"/>
    </contour>
  </outline>
</glyph>
<glyph name="peso.color4" format="2">
  <advance width="600"/>
  <unicode hex="20B1"/>
  <outline>
    <contour>
      <point x="1009" y="422" type="line"/>
      <point x="1032" y="399" type="line"/>
      <point x="1032" y="398" type="line"/>
      <point x="3" y="397" type="line"/>
      <point x="3" y="398" type="line"/>
      <point x="-20" y="421" type="line"/>
    </contour>
  </outline>
</glyph>
<glyph name="rupeeIndian.color0" format="2">
  <advance width="600"/>
  <unicode hex="20B9"/>
  <outline>
    <contour>
      <point x="707" y="0" type="line"/>
      <point x="386" y="0" type="line"/>
      <point x="105" y="168" type="line"/>
      <point x="289" y="284" type="line"/>
      <point x="707" y="1" type="line"/>
    </contour>
  </outline>
</glyph>
<glyph name="liraTurkish.color1" format="2">
  <advance width="600"/>
  <unicode hex="20BA"/>
  <outline>
    <contour>
      <point x="710" y="476" type="line"/>
      <point x="710" y="405" type="line"/>
      <point x="8" y="295" type="line"/>
      <point x="5" y="405" type="line"/>
      <point x="5" y="406" type="line"/>
      <point x="707" y="516" type="line"/>
    </contour>
  </outline>
</glyph>
<glyph name="liraTurkish.color3" format="2">
  <advance width="600"/>
  <unicode hex="20BA"/>
  <outline>
    <contour>
      <point x="347" y="0" type="line"/>
      <point x="145" y="243" type="line"/>
      <point x="145" y="244" type="line"/>
      <point x="738" y="244" type="line"/>
      <point x="738" y="0" type="line"/>
    </contour>
  </outline>
</glyph>
<glyph name="ruble.color1" format="2">
  <advance width="600"/>
  <unicode hex="20BD"/>
  <outline>
    <contour>
      <point x="1101" y="370" type="line"/>
      <point x="848" y="173" type="line"/>
      <point x="847" y="173" type="line"/>
      <point x="847" y="486" type="line"/>
      <point x="1101" y="486" type="line"/>
    </contour>
  </outline>
</glyph>
<glyph name="numero.color1" format="2">
  <advance width="600"/>
  <unicode hex="2116"/>
  <outline>
    <contour>
      <point x="1532" y="530" type="line"/>
      <point x="1639" y="327" type="line"/>
      <point x="1639" y="326" type="line"/>
      <point x="1136" y="326" type="line"/>
      <point x="1136" y="530" type="line"/>
    </contour>
  </outline>
</glyph>
<glyph name="numero" format="2">
  <advance width="1754"/>
  <unicode hex="2116"/>
  <outline>
    <contour>
      <point x="922" y="423" type="line"/>
      <point x="1135" y="530" type="line"/>
      <point x="1136" y="530" type="line"/>
      <point x="1136" y="284" type="line"/>
      <point x="922" y="284" type="line"/>
    </contour>
    <contour>
      <point x="1532" y="530" type="line"/>
      <point x="1639" y="327" type="line"/>
      <point x="1639" y="326" type="line"/>
      <point x="1136" y="326" type="line"/>
      <point x="1136" y="530" type="line"/>
    </contour>
    <contour>
      <point x="1639" y="187" type="line"/>
      <point x="1426" y="80" type="line"/>
      <point x="1425" y="80" type="line"/>
      <point x="1425" y="326" type="line"/>
      <point x="1639" y="326" type="line"/>
    </contour>
    <contour>
      <point x="1029" y="80" type="line"/>
      <point x="922" y="283" type="line"/>
      <point x="922" y="284" type="line"/>
      <point x="1425" y="284" type="line"/>
      <point x="1425" y="80" type="line"/>
    </contour>
    <contour>
      <point x="992" y="0" type="line"/>
      <point x="992" y="23" type="line"/>
      <point x="992" y="24" type="line"/>
      <point x="1569" y="24" type="line"/>
      <point x="1569" y="0" type="line"/>
    </contour>
    <component base="N"/>
  </outline>
</glyph>
<glyph name="trademark.color0" format="2">
  <advance width="600"/>
  <unicode hex="2122"/>
  <outline>
    <contour>
      <point x="128" y="687" type="line"/>
      <point x="216" y="794" type="line"/>
      <point x="239" y="794" type="line"/>
      <point x="239" y="474" type="line"/>
      <point x="151" y="474" type="line"/>
      <point x="128" y="474" type="line"/>
    </contour>
  </outline>
</glyph>
<glyph name="approxequal.color0" format="2">
  <advance width="600"/>
  <unicode hex="2248"/>
  <outline>
    <contour>
      <point x="783" y="351" type="line"/>
      <point x="783" y="124" type="line"/>
      <point x="569" y="123" type="line"/>
      <point x="569" y="351" type="line"/>
    </contour>
  </outline>
</glyph>
<glyph name="approxequal.color4" format="2">
  <advance width="600"/>
  <unicode hex="2248"/>
  <outline>
    <contour>
      <point x="25" y="632" type="line"/>
      <point x="25" y="633" type="line"/>
      <point x="239" y="676" type="line"/>
      <point x="240" y="676" type="line"/>
      <point x="783" y="423" type="line"/>
      <point x="783" y="422" type="line"/>
      <point x="569" y="381" type="line"/>
      <point x="568" y="381" type="line"/>
    </contour>
  </outline>
</glyph>
<glyph name="notequal.color0" format="2">
  <advance width="600"/>
  <unicode hex="2260"/>
  <outline>
    <contour>
      <point x="675" y="346" type="line"/>
      <point x="35" y="346" type="line"/>
      <point x="35" y="530" type="line"/>
      <point x="675" y="530" type="line"/>
    </contour>
  </outline>
</glyph>
<glyph name="fl.color0" format="2">
  <advance width="600"/>
  <unicode hex="FB02"/>
  <outline>
    <contour>
      <point x="249" y="173" type="line"/>
      <point x="36" y="377" type="line"/>
      <point x="583" y="377" type="line"/>
      <point x="583" y="173" type="line"/>
    </contour>
  </outline>
</glyph>
<glyph name="fl" format="2">
  <advance width="1093"/>
  <unicode hex="FB02"/>
  <anchor x="866" y="0" name="bottom_1"/>
  <anchor x="756" y="794" name="top_1"/>
  <outline>
    <contour>
      <point x="249" y="173" type="line"/>
      <point x="36" y="377" type="line"/>
      <point x="583" y="377" type="line"/>
      <point x="583" y="173" type="line"/>
    </contour>
    <contour>
      <point x="35" y="596" type="line"/>
      <point x="248" y="703" type="line"/>
      <point x="249" y="703" type="line"/>
      <point x="249" y="377" type="line"/>
      <point x="35" y="377" type="line"/>
    </contour>
    <contour>
      <point x="579" y="703" type="line"/>
      <point x="602" y="500" type="line"/>
      <point x="602" y="499" type="line"/>
      <point x="249" y="499" type="line"/>
      <point x="249" y="703" type="line"/>
    </contour>
    <contour>
      <point x="249" y="173" type="line"/>
      <point x="249" y="0" type="line"/>
      <point x="35" y="0" type="line"/>
      <point x="35" y="377" type="line"/>
      <point x="36" y="377" type="line"/>
    </contour>
    <contour>
      <point x="642" y="794" type="line"/>
      <point x="856" y="794" type="line"/>
      <point x="856" y="0" type="line"/>
      <point x="855" y="0" type="line"/>
      <point x="642" y="107" type="line"/>
    </contour>
    <contour>
      <point x="1068" y="0" type="line"/>
      <point x="856" y="0" type="line"/>
      <point x="856" y="204" type="line"/>
      <point x="1068" y="204" type="line"/>
      <point x="1068" y="203" type="line"/>
    </contour>
  </outline>
</glyph>
<glyph name="acutecomb.case" format="2">
  <anchor x="270" y="730" name="_top"/>
  <outline>
    <contour>
      <point x="186" y="760" type="line"/>
      <point x="221" y="900" type="line"/>
      <point x="427" y="900" type="line"/>
      <point x="427" y="899" type="line"/>
      <point x="312" y="760" type="line"/>
    </contour>
  </outline>
</glyph>
<glyph name="brevecomb_acutecomb.case.color3" format="2">
  <outline>
    <contour>
      <point x="245" y="870" type="line"/>
      <point x="278" y="980" type="line"/>
      <point x="444" y="980" type="line"/>
      <point x="444" y="979" type="line"/>
      <point x="341" y="870" type="line"/>
    </contour>
  </outline>
</glyph>
<glyph name="brevecomb_gravecomb.case.color0" format="2">
  <outline>
    <contour>
      <point x="242" y="852" type="line"/>
      <point x="96" y="852" type="line"/>
      <point x="59" y="890" type="line"/>
      <point x="59" y="892" type="line"/>
      <point x="195" y="892" type="line"/>
    </contour>
  </outline>
</glyph>
<glyph name="brevecomb_gravecomb.case.color3" format="2">
  <outline>
    <contour>
      <point x="368" y="870" type="line"/>
      <point x="272" y="870" type="line"/>
      <point x="169" y="979" type="line"/>
      <point x="169" y="980" type="line"/>
      <point x="335" y="980" type="line"/>
    </contour>
  </outline>
</glyph>
<glyph name="brevecomb_gravecomb.color1" format="2">
  <outline>
    <contour>
      <point x="387" y="685" type="line"/>
      <point x="434" y="756" type="line"/>
      <point x="560" y="756" type="line"/>
      <point x="560" y="755" type="line"/>
      <point x="513" y="685" type="line"/>
    </contour>
  </outline>
</glyph>
<glyph name="brevecomb_hookabovecomb.color3" format="2">
  <outline>
    <contour>
      <point x="437" y="803" type="line"/>
      <point x="179" y="803" type="line"/>
      <point x="179" y="900" type="line"/>
      <point x="350" y="900" type="line"/>
      <point x="437" y="804" type="line"/>
    </contour>
  </outline>
</glyph>
<glyph name="brevecomb_tildecomb.case.color1" format="2">
  <outline>
    <contour>
      <point x="317" y="852" type="line"/>
      <point x="368" y="895" type="line"/>
      <point x="482" y="872" type="line"/>
      <point x="482" y="871" type="line"/>
      <point x="463" y="852" type="line"/>
    </contour>
  </outline>
</glyph>
<glyph name="brevecomb_tildecomb.case.color2" format="2">
  <outline>
    <contour>
      <point x="372" y="760" type="line"/>
      <point x="127" y="760" type="line"/>
      <point x="36" y="852" type="line"/>
      <point x="463" y="852" type="line"/>
    </contour>
  </outline>
</glyph>
<glyph name="circumflexcomb_tildecomb.case.color1" format="2">
  <outline>
    <contour>
      <point x="528" y="980" type="line"/>
      <point x="528" y="906" type="line"/>
      <point x="408" y="887" type="line"/>
      <point x="408" y="980" type="line"/>
    </contour>
  </outline>
</glyph>
<glyph name="circumflexcomb_tildecomb.case.color3" format="2">
  <outline>
    <contour>
      <point x="545" y="755" type="line"/>
      <point x="371" y="755" type="line"/>
      <point x="267" y="808" type="line"/>
      <point x="381" y="853" type="line"/>
      <point x="545" y="756" type="line"/>
    </contour>
  </outline>
</glyph>
<glyph name="circumflexcomb_tildecomb.case.color4" format="2">
  <outline>
    <contour>
      <point x="53" y="755" type="line"/>
      <point x="53" y="756" type="line"/>
      <point x="217" y="853" type="line"/>
      <point x="381" y="853" type="line"/>
      <point x="217" y="755" type="line"/>
    </contour>
  </outline>
</glyph>
<glyph name="circumflexcomb_tildecomb.color3" format="2">
  <outline>
    <contour>
      <point x="507" y="891" type="line"/>
      <point x="507" y="790" type="line"/>
      <point x="388" y="790" type="line"/>
      <point x="388" y="891" type="line"/>
    </contour>
  </outline>
</glyph>
<glyph name="f_f_l" format="2">
  <advance width="1700"/>
  <anchor x="1473" y="0" name="bottom_1"/>
  <anchor x="1363" y="794" name="top_1"/>
  <outline>
    <contour>
      <point x="249" y="173" type="line"/>
      <point x="36" y="377" type="line"/>
      <point x="583" y="377" type="line"/>
      <point x="583" y="173" type="line"/>
    </contour>
    <contour>
      <point x="35" y="596" type="line"/>
      <point x="248" y="703" type="line"/>
      <point x="249" y="703" type="line"/>
      <point x="249" y="377" type="line"/>
      <point x="35" y="377" type="line"/>
    </contour>
    <contour>
      <point x="579" y="703" type="line"/>
      <point x="602" y="500" type="line"/>
      <point x="602" y="499" type="line"/>
      <point x="249" y="499" type="line"/>
      <point x="249" y="703" type="line"/>
    </contour>
    <contour>
      <point x="249" y="173" type="line"/>
      <point x="249" y="0" type="line"/>
      <point x="35" y="0" type="line"/>
      <point x="35" y="377" type="line"/>
      <point x="36" y="377" type="line"/>
    </contour>
    <contour>
      <point x="856" y="173" type="line"/>
      <point x="643" y="377" type="line"/>
      <point x="1090" y="377" type="line"/>
      <point x="1190" y="173" type="line"/>
    </contour>
    <contour>
      <point x="642" y="596" type="line"/>
      <point x="855" y="703" type="line"/>
      <point x="856" y="703" type="line"/>
      <point x="856" y="377" type="line"/>
      <point x="642" y="377" type="line"/>
    </contour>
    <contour>
      <point x="1186" y="703" type="line"/>
      <point x="1209" y="500" type="line"/>
      <point x="1209" y="499" type="line"/>
      <point x="856" y="499" type="line"/>
      <point x="856" y="703" type="line"/>
    </contour>
    <contour>
      <point x="856" y="173" type="line"/>
      <point x="856" y="0" type="line"/>
      <point x="642" y="0" type="line"/>
      <point x="642" y="377" type="line"/>
      <point x="643" y="377" type="line"/>
    </contour>
    <contour>
      <point x="1249" y="794" type="line"/>
      <point x="1463" y="794" type="line"/>
      <point x="1463" y="0" type="line"/>
      <point x="1462" y="0" type="line"/>
      <point x="1249" y="107" type="line"/>
    </contour>
    <contour>
      <point x="1675" y="0" type="line"/>
      <point x="1463" y="0" type="line"/>
      <point x="1463" y="204" type="line"/>
      <point x="1675" y="204" type="line"/>
      <point x="1675" y="203" type="line"/>
    </contour>
  </outline>
</glyph>
<glyph name="gravecomb.case" format="2">
  <anchor x="258" y="730" name="_top"/>
  <outline>
    <contour>
      <point x="337" y="760" type="line"/>
      <point x="211" y="760" type="line"/>
      <point x="96" y="899" type="line"/>
      <point x="96" y="900" type="line"/>
      <point x="302" y="900" type="line"/>
    </contour>
  </outline>
</glyph>
<glyph name="macroncomb.case" format="2">
  <anchor x="309" y="730" name="_top"/>
  <outline>
    <contour>
      <point x="507" y="798" type="line"/>
      <point x="111" y="798" type="line"/>
      <point x="111" y="900" type="line"/>
      <point x="507" y="900" type="line"/>
    </contour>
  </outline>
</glyph>
<glyph name="nine.lf.color0" format="2">
  <advance width="600"/>
  <outline>
    <contour>
      <point x="755" y="207" type="line"/>
      <point x="502" y="0" type="line"/>
      <point x="501" y="0" type="line"/>
      <point x="501" y="486" type="line"/>
      <point x="755" y="486" type="line"/>
    </contour>
  </outline>
</glyph>
<glyph name="ringcomb.case.color1" format="2">
  <outline>
    <contour>
      <point x="398" y="948" type="line"/>
      <point x="458" y="864" type="line"/>
      <point x="458" y="864" type="line"/>
      <point x="228" y="864" type="line"/>
      <point x="228" y="948" type="line"/>
    </contour>
  </outline>
</glyph>
<glyph name="ringcomb.case.color2" format="2">
  <outline>
    <contour>
      <point x="458" y="786" type="line"/>
      <point x="362" y="730" type="line"/>
      <point x="362" y="730" type="line"/>
      <point x="362" y="864" type="line"/>
      <point x="458" y="864" type="line"/>
    </contour>
  </outline>
</glyph>
<glyph name="test" format="2">
  <advance width="600"/>
  <outline>
    <contour>
      <point x="131" y="580" type="line"/>
      <point x="131" y="0" type="line"/>
      <point x="565" y="0" type="line"/>
      <point x="565" y="580" type="line"/>
    </contour>
  </outline>
</glyph>
<glyph name="three.lf.color0" format="2">
  <advance width="600"/>
  <outline>
    <contour>
      <point x="765" y="366" type="line"/>
      <point x="511" y="366" type="line"/>
      <point x="511" y="730" type="line"/>
      <point x="512" y="730" type="line"/>
      <point x="765" y="523" type="line"/>
    </contour>
  </outline>
</glyph>
<glyph name="tildecomb.case.color2" format="2">
  <outline>
    <contour>
      <point x="49" y="853" type="line"/>
      <point x="49" y="854" type="line"/>
      <point x="187" y="923" type="line"/>
      <point x="198" y="923" type="line"/>
      <point x="517" y="827" type="line"/>
      <point x="517" y="826" type="line"/>
      <point x="379" y="756" type="line"/>
      <point x="368" y="756" type="line"/>
    </contour>
  </outline>
</glyph>
<glyph name="tildecomb.case" format="2">
  <anchor x="287" y="730" name="_top"/>
  <outline>
    <contour>
      <point x="49" y="772" type="line"/>
      <point x="49" y="853" type="line"/>
      <point x="189" y="864" type="line"/>
      <point x="189" y="772" type="line"/>
    </contour>
    <contour>
      <point x="517" y="915" type="line"/>
      <point x="517" y="827" type="line"/>
      <point x="378" y="806" type="line"/>
      <point x="378" y="915" type="line"/>
    </contour>
    <contour>
      <point x="49" y="853" type="line"/>
      <point x="49" y="854" type="line"/>
      <point x="187" y="923" type="line"/>
      <point x="198" y="923" type="line"/>
      <point x="517" y="827" type="line"/>
      <point x="517" y="826" type="line"/>
      <point x="379" y="756" type="line"/>
      <point x="368" y="756" type="line"/>
    </contour>
  </outline>
</glyph>
<glyph name="zero.lf" format="2">
  <advance width="800"/>
  <outline>
    <contour>
      <point x="439" y="244" type="line"/>
      <point x="197" y="486" type="line"/>
      <point x="400" y="486" type="line"/>
      <point x="642" y="246" type="line"/>
      <point x="642" y="245" type="line"/>
    </contour>
    <contour>
      <point x="25" y="523" type="line"/>
      <point x="278" y="730" type="line"/>
      <point x="279" y="730" type="line"/>
      <point x="279" y="244" type="line"/>
      <point x="25" y="244" type="line"/>
    </contour>
    <contour>
      <point x="573" y="730" type="line"/>
      <point x="775" y="487" type="line"/>
      <point x="775" y="486" type="line"/>
      <point x="279" y="486" type="line"/>
      <point x="279" y="730" type="line"/>
    </contour>
    <contour>
      <point x="775" y="197" type="line"/>
      <point x="522" y="0" type="line"/>
      <point x="521" y="0" type="line"/>
      <point x="521" y="486" type="line"/>
      <point x="775" y="486" type="line"/>
    </contour>
    <contour>
      <point x="227" y="0" type="line"/>
      <point x="25" y="243" type="line"/>
      <point x="25" y="244" type="line"/>
      <point x="521" y="244" type="line"/>
      <point x="521" y="0" type="line"/>
    </contour>
  </outline>
</glyph>
